<svg width="16px" height="17px" class="feathericons" xmlns="http://www.w3.org/2000/svg" xmlns:xlink="http://www.w3.org/1999/xlink" x="0px" y="0px"
	 viewBox="0 0 16 17" style="enable-background:new 0 0 16 17;" xml:space="preserve">
<g id="Symbols">
	<g id="NEW-NAVIGATION-BAR" transform="translate(-1289.000000, -29.000000)" class="feathericons">
		<g class="feathericons">
			<g transform="translate(1289.000000, 29.000000)" class="feathericons">
				<path id="Oval-2" d="M7,14c-3.9,0-7-3.1-7-7s3.1-7,7-7s7,3.1,7,7S10.9,14,7,14z M7,12.9c3.3,0,5.9-2.6,5.9-5.9
					S10.3,1.1,7,1.1S1.1,3.7,1.1,7S3.7,12.9,7,12.9z"/>
				<path id="Path-5" d="M11.1,12.1L11.1,12.1c0.2-0.2,0.5-0.2,0.7,0l4.1,4.1c0.2,0.2,0.2,0.5,0,0.7l0,0
					c-0.2,0.2-0.5,0.2-0.7,0l-4.1-4.1C11,12.6,11,12.3,11.1,12.1z"/>
			</g>
		</g>
	</g>
</g>
</svg>
