<svg width="95" height="71" viewBox="0 0 95 71" fill="none" xmlns="http://www.w3.org/2000/svg">
<path d="M57.297 46.9999H20.7785C17.8972 46.9999 15.5615 49.4227 15.5615 52.4115V57.8231C15.5615 60.8119 17.8972 63.2348 20.7785 63.2348H57.297C60.1783 63.2348 62.514 60.8119 62.514 57.8231V52.4115C62.514 49.4227 60.1783 46.9999 57.297 46.9999Z" stroke="#274D58" stroke-width="1.5"/>
<path d="M48.1666 25.3494H29.9074C27.0261 25.3494 24.6904 27.7722 24.6904 30.7609V41.5841C24.6904 44.5728 27.0261 46.9957 29.9074 46.9957H48.1666C51.0479 46.9957 53.3836 44.5728 53.3836 41.5841V30.7609C53.3836 27.7722 51.0479 25.3494 48.1666 25.3494Z" stroke="#274D58" stroke-width="1.5"/>
<path d="M22.0813 64.5884L20.7771 70" stroke="#274D58" stroke-width="1.5" stroke-linecap="round"/>
<path d="M55.9917 64.5884L57.2959 70" stroke="#274D58" stroke-width="1.5" stroke-linecap="round"/>
<path d="M1.3584 47.5103L6.11568 44.5452" stroke="#274D58" stroke-width="1.5" stroke-linecap="round"/>
<path d="M5.09381 48.707L2.23535 43.7722" stroke="#274D58" stroke-width="1.5" stroke-linecap="round"/>
<path d="M40.4868 12.3386L45.2441 9.37354" stroke="#274D58" stroke-width="1.5" stroke-linecap="round"/>
<path d="M44.2222 13.5354L41.3638 8.60059" stroke="#274D58" stroke-width="1.5" stroke-linecap="round"/>
<path d="M88.7434 47.5103L93.5007 44.5452" stroke="#274D58" stroke-width="1.5" stroke-linecap="round"/>
<path d="M92.4788 48.7069L89.6204 43.7721" stroke="#274D58" stroke-width="1.5" stroke-linecap="round"/>
<path d="M82.7286 64.5884H72.2947C71.5744 64.5884 70.9905 65.1941 70.9905 65.9413V68.6471C70.9905 69.3942 71.5744 70 72.2947 70H82.7286C83.4489 70 84.0328 69.3942 84.0328 68.6471V65.9413C84.0328 65.1941 83.4489 64.5884 82.7286 64.5884Z" stroke="#274D58" stroke-width="1.5"/>
<path d="M77.5112 64.5875V19.9419" stroke="#274D58" stroke-width="1.5"/>
<path d="M78.1644 1H72.6926C72.2081 1.02807 71.7721 1.32268 71.5415 1.77784L63.897 19.1497C63.7938 19.3164 63.7913 19.532 63.8908 19.7014C63.9903 19.8707 64.1734 19.9625 64.3591 19.9362H78.1644" stroke="#274D58" stroke-width="1.5"/>
<path d="M76.8599 1H82.3163C82.7995 1.02807 83.2342 1.32268 83.4642 1.77784L91.1275 19.1497C91.2305 19.3164 91.2329 19.532 91.1337 19.7014C91.0345 19.8707 90.852 19.9625 90.6667 19.9362H76.8599" stroke="#274D58" stroke-width="1.5"/>
<path d="M59.2526 46.9991C61.7736 46.9991 63.8174 44.879 63.8174 42.2639C63.8174 39.6487 61.7736 37.5287 59.2526 37.5287C56.7315 37.5287 54.6877 39.6487 54.6877 42.2639C54.6877 44.879 56.7315 46.9991 59.2526 46.9991Z" stroke="#274D58" stroke-width="1.5"/>
<path d="M18.8204 46.9991C21.3415 46.9991 23.3853 44.879 23.3853 42.2639C23.3853 39.6487 21.3415 37.5287 18.8204 37.5287C16.2994 37.5287 14.2556 39.6487 14.2556 42.2639C14.2556 44.879 16.2994 46.9991 18.8204 46.9991Z" stroke="#274D58" stroke-width="1.5"/>
</svg>
