<?xml version="1.0" encoding="UTF-8"?>
<svg viewBox="0 0 1401 374" version="1.1" xmlns="http://www.w3.org/2000/svg" xmlns:xlink="http://www.w3.org/1999/xlink">
  <g id="Page-1" stroke="none" stroke-width="1" fill="none" fill-rule="evenodd">
    <g class="feathericons" id="logo-apartmenttherapy" transform="translate(-899.000000, -1.000000)">
      <g id="Group" transform="translate(1410.000000, 21.000000)" fill-rule="nonzero">
        <path d="M694.55,70.4 L642.45,70.4 C641.6328,70.3536637 640.973098,69.7152418 640.9,68.9 C643.191018,54.7593261 655.687065,44.5606624 670,45.15 C683.82269,45.0751481 695.277825,55.8486916 696.05,69.65 C696.05,69.65 696.05,71.2 694.55,70.4 M670,31.2 C641.65,31.2 624.05,54.2 624.05,80.25 C624.05,106.3 641.65,129.25 670,129.25 C682.316028,129.244942 694.342555,125.514976 704.5,118.55 C707.55,116.25 706.8,114.7 705.25,112.4 L701.45,107.05 C699.15,104.75 698.35,105.5 694.55,107.8 C687.757134,112.372182 679.737906,114.77795 671.55,114.7 C655.557036,114.268124 642.216903,102.344455 640,86.5 C639.881244,85.6586364 640.158095,84.8096264 640.75,84.2 L706.65,84.2 C708.853899,84.0872447 710.723255,82.5429946 711.25,80.4 C711.25,78.85 712,75.8 712,74.25 C713.552127,51.870971 696.809748,32.4087912 674.45,30.6 C672.15,30.6 670.65,30.6 669.85,31.35"></path>
        <path d="M885.3,108.7 C884.55,106.45 883,105.65 879.15,107.2 C875.289268,111.065189 870.062877,113.256321 864.6,113.3 C855.4,113.3 853.9,102.6 854.6,101.05 L854.6,49.75 C854.6,48.2 855.35,46.65 856.9,46.65 L881.4,46.65 C883.7142,46.8534423 885.762947,45.1609987 886,42.85 L886,37.5 C886.111292,36.3850294 885.77244,35.2718131 885.058807,34.4079418 C884.345174,33.5440705 883.315934,33.0011747 882.2,32.9 L858.5,32.9 C857.028343,33.1112934 855.655227,32.1146765 855.4,30.65 L855.4,5.3 C855.576238,2.99434184 853.897475,0.962156123 851.6,0.7 L844.7,0.7 C843.519604,0.659539993 842.371543,1.08999636 841.508725,1.8965433 C840.645908,2.70309024 840.139119,3.81955856 840.1,5 L840.1,30.6 C839.980382,32.2323571 838.682357,33.5303819 837.05,33.65 L827.85,33.65 C825.518096,33.447661 823.461536,35.1689125 823.25,37.5 L823.25,42.85 C823.073762,45.1556582 824.752525,47.1878439 827.05,47.45 L836.25,47.45 C837.8,47.45 838.55,48.95 838.55,50.5 L838.55,104.15 C838.55,118.7 847,129.4 865.4,129.4 C873.300282,129.318373 880.909953,126.409315 886.85,121.2 C888.838622,120.290423 889.746075,117.966458 888.9,115.95 C888.777617,115.61676 888.590718,115.310925 888.35,115.05 L885.3,108.7 Z"></path>
        <path d="M772.7,30.6 C763.080557,30.6066152 753.802918,34.1680889 746.65,40.6 C746.65,40.6 744.35,42.9 744.35,39.8 L744.35,37.55 C744.524645,35.2269073 742.817537,33.1872449 740.5,32.95 L733.6,32.95 C731.294342,32.7737624 729.262156,34.4525246 729,36.75 L729,121.2 C728.851883,123.514487 730.545607,125.538157 732.85,125.8 L740,125.8 C742.314487,125.948117 744.338157,124.254393 744.6,121.95 L744.6,71.2 C744.140802,58.7816532 753.649184,48.2537243 766.05,47.45 C767.757883,46.8125899 769.580365,46.5400693 771.4,46.65 C784.487774,46.3122048 795.411349,56.5669897 795.9,69.65 L795.9,122.5 C795.725355,124.823093 797.432463,126.862755 799.75,127.1 L807.4,127.1 C809.705658,127.276238 811.737844,125.597475 812,123.3 L812,74.25 C812.75,45.15 795.9,30.6 772.95,30.6"></path>
        <path d="M34.15,112.55 C44.1029021,113.213746 53.7530344,108.976647 60,101.2 L60,84.2 C53.7043821,79.2037624 45.7678832,76.742556 37.75,77.3 C24,77.3 15.55,83.45 15.55,94.95 C16.2861383,104.655944 24.2209363,112.245751 33.95,112.55 M40.05,62.55 C47.146511,63.335513 53.9787749,65.692644 60.05,69.45 C60.05,51.85 53.15,44.15 40.05,44.15 C31.8160555,44.0309752 23.6729969,45.8824495 16.3,49.55 C14.7106334,50.3129712 12.802792,49.6696293 12,48.1 C11.8779117,47.8249534 11.7776036,47.540747 11.7,47.25 L9.6,41.2 C8.90897635,39.2544418 9.79209377,37.1004969 11.65,36.2 C20.0786182,31.5687947 29.6524984,29.4354845 39.25,30.05 C63,30.05 74.25,42.3 74.25,70.05 L74.25,121.75 C74.3981171,124.064487 72.7043928,126.088157 70.4,126.35 L65,126.35 C63.1069444,126.528465 61.4094161,125.18367 61.15,123.3 L61.15,117.15 C53.0673768,124.131456 42.7302156,127.950166 32.05,127.9 C14.5506164,127.30238 0.838315341,112.650574 1.4,95.15 C1.4,76.75 16.7,62.95 40.45,62.95"></path>
        <path d="M234.1,112.55 C243.969089,112.693293 253.41613,108.553374 260,101.2 L260,84.2 C253.722033,79.2070381 245.802189,76.7454652 237.8,77.3 C224,77.3 215.55,83.45 215.55,94.95 C215.522284,104.623176 223.326941,112.494922 233,112.55 C233.316177,112.574901 233.633823,112.574901 233.95,112.55 M239.3,62.55 C246.349928,63.0399451 253.192841,65.1441409 259.3,68.7 C259.3,51.05 252.4,43.4 239.3,43.4 C231.069935,43.2635156 222.926636,45.0979008 215.55,48.75 C214.787901,49.1303471 213.905615,49.1911775 213.098528,48.9190203 C212.291441,48.6468631 211.626155,48.0641769 211.25,47.3 C211.098291,47.0376591 210.99657,46.7494489 210.95,46.45 L208.65,40.35 C207.93403,38.4039156 208.823958,36.2333594 210.7,35.35 L210.95,35.35 C219.366603,30.6870384 228.949894,28.5516311 238.55,29.2 C262.3,29.2 273.55,41.45 273.55,69.2 L273.55,121.75 C273.636212,123.909183 272.124367,125.804313 270,126.2 L264,126.2 C262.106944,126.378465 260.409416,125.03367 260.15,123.15 L260.15,117.15 C252.067377,124.131456 241.730216,127.950166 231.05,127.9 C222.641071,127.626089 214.685947,124.020598 208.93699,117.877748 C203.188033,111.734898 200.116863,103.558623 200.4,95.15 C200.4,76.75 215.7,62.95 239.45,62.95"></path>
        <path d="M434.05,108.7 C433.3,106.45 431.75,105.65 427.95,107.2 C424.06482,111.059157 418.825857,113.248039 413.35,113.3 C404.2,113.3 402.65,102.6 403.35,101.05 L403.35,49.75 C403.35,48.2 404.15,46.65 405.65,46.65 L430,46.65 C431.114971,46.7612924 432.228187,46.4224401 433.092058,45.7088073 C433.95593,44.9951744 434.498825,43.9659342 434.6,42.85 L434.6,37.5 C434.711292,36.3850294 434.37244,35.2718131 433.658807,34.4079418 C432.945174,33.5440705 431.915934,33.0011747 430.8,32.9 L407.05,32.9 C405.589301,33.1094792 404.230996,32.1074511 404,30.65 C403.950475,30.3688308 403.950475,30.0811692 404,29.8 L404,5.3 C404.148117,2.98551326 402.454393,0.961842578 400.15,0.7 L393.25,0.7 C392.069604,0.659539993 390.921543,1.08999636 390.058725,1.8965433 C389.195908,2.70309024 388.689119,3.81955856 388.65,5 L388.65,30.6 C388.530382,32.2323571 387.232357,33.5303819 385.6,33.65 L376.4,33.65 C374.076907,33.4753547 372.037245,35.1824635 371.8,37.5 L371.8,42.85 C371.625355,45.1730927 373.332463,47.2127551 375.65,47.45 L385,47.45 C386.55,47.45 387.3,48.95 387.3,50.5 L387.3,104.15 C387.3,118.7 395.75,129.4 414.15,129.4 C422.050282,129.318373 429.659953,126.409315 435.6,121.2 C437.60953,120.310299 438.524919,117.96601 437.65,115.95 C437.527617,115.61676 437.340718,115.310925 437.1,115.05 L434.05,108.7 Z"></path>
        <path d="M139.1,112.55 C130.704362,112.429642 122.597102,109.46873 116.1,104.15 L116.1,55.1 C122.238122,47.9005909 131.18974,43.7073686 140.65,43.6 C159.8,43.6 170.65,59.7 170.65,78.1 C172.367195,94.928277 160.126567,109.966124 143.3,111.7 L142.3,111.7 C141.369774,112.220989 140.315758,112.480174 139.25,112.45 M142.3,28.95 C132.959634,29.0534077 123.872609,32.0010221 116.25,37.4 L116.25,36.7 C116.426238,34.3943418 114.747475,32.3621561 112.45,32.1 L105.55,32.1 C103.226907,31.9253547 101.187245,33.6324635 100.95,35.95 L100.95,157.75 C100.773762,160.055658 102.452525,162.087844 104.75,162.35 L111.65,162.35 C113.981904,162.552339 116.038464,160.831088 116.25,158.5 L116.25,121.2 C123.671029,126.342944 132.522662,129.019426 141.55,128.85 C167.6,128.85 186.55,107.4 186.55,78.85 C186.55,50.3 168.15,28.85 142.1,28.85"></path>
        <path d="M342.1,29.05 C332.116295,29.0019948 322.505372,32.8391918 315.3,39.75 L315.3,36.7 C315.474645,34.3769073 313.767537,32.3372449 311.45,32.1 L304.6,32.1 C303.442515,32.0179183 302.300989,32.4071312 301.434741,33.1792217 C300.568493,33.9513122 300.051065,35.0407323 300,36.2 L300,120.2 C299.796558,122.5142 301.489001,124.562947 303.8,124.8 L310.7,124.8 C313.0142,125.003442 315.062947,123.310999 315.3,121 L315.3,58.15 C321.227013,49.5925348 330.940852,44.4466235 341.35,44.35 C344.551689,44.4069198 347.698194,45.193546 350.55,46.65 C351.593709,47.2022456 352.817078,47.3064646 353.939161,46.9387231 C355.061244,46.5709816 355.985618,45.7628805 356.5,44.7 C356.525834,44.5847634 356.525834,44.4652366 356.5,44.35 L360,36.2 C361.5,30.85 349.25,29.3 342.35,29.3"></path>
        <path d="M568.15,30.6 C554.396803,30.3149483 541.623825,37.6936068 535,49.75 C527.934099,37.4698548 514.659103,30.1012699 500.5,30.6 C490.884055,30.6254005 481.612889,34.1843894 474.45,40.6 C474.45,40.6 472.15,42.9 472.15,39.8 L472.15,37.55 C472.261292,36.4350294 471.92244,35.3218131 471.208807,34.4579418 C470.495174,33.5940705 469.465934,33.0511747 468.35,32.95 L461.45,32.95 C459.1358,32.7465577 457.087053,34.4390013 456.85,36.75 L456.85,121.2 C456.673762,123.505658 458.352525,125.537844 460.65,125.8 L467.55,125.8 C469.873093,125.974645 471.912755,124.267537 472.15,121.95 L472.15,71.2 C471.690802,58.7816532 481.199184,48.2537243 493.6,47.45 C495.30862,46.8154486 497.130496,46.5430186 498.95,46.65 C512.057026,46.2842852 523.011339,56.5469814 523.5,69.65 L523.5,122.5 C523.296558,124.8142 524.989001,126.862947 527.3,127.1 L535,127.1 C537.305658,127.276238 539.337844,125.597475 539.6,123.3 L539.6,72.7 C539.167404,60.2913433 548.661525,49.7792052 561.05,48.95 C562.766192,48.348681 564.584617,48.0937616 566.4,48.2 C579.487774,47.8622048 590.411349,58.1169897 590.9,71.2 L590.9,122.5 C590.725355,124.823093 592.432463,126.862755 594.75,127.1 L602.4,127.1 C604.705658,127.276238 606.737844,125.597475 607,123.3 L607,74.25 C607.75,45.15 590.9,30.6 567.95,30.6"></path>
      </g>
      <path d="M1103.2,83.75 L1103.2,85.3 C1097.1,115.95 1087.15,132 1069.5,139.7 C1065.34549,141.261464 1060.93806,142.041239 1056.5,142 C1032.75,142 1021.5,119 1016.5,111.35 C1012.20676,103.664387 1008.36687,95.7341707 1005,87.6 C995,64.6 980,37.2 963,37.2 C957.673453,37.3021629 952.440519,38.618947 947.7,41.05 C936.2,47.95 936.2,53.3 936.2,55.6 C933.9,75.6 950.75,93.9 974.5,115.6 C977.766306,118.191264 980.840988,121.015292 983.7,124.05 C998.964522,136.005791 1011.94014,150.62454 1022,167.2 C1028.2483,176.574569 1031.95273,187.4122 1032.75,198.65 C1032.77527,211.234696 1029.61002,223.620434 1023.55,234.65 C1019.58646,242.11706 1014.69797,249.055023 1009,255.3 C992.9,272.95 986.75,289.8 993.65,303.6 C996.857798,311.303091 1003.81488,316.804482 1012.05,318.15 C1015.07444,318.775397 1018.1642,319.027279 1021.25,318.9 C1042.7,318.9 1052.65,305.1 1057.25,266.8 C1059.73589,250.510267 1065.46569,234.885087 1074.1,220.85 C1082.33436,204.310455 1099.27457,193.909591 1117.75,194.05 L1121.6,194.05 C1134.77947,193.881974 1147.37716,199.468776 1156.1,209.35 C1163.28294,217.340704 1168.0964,227.175392 1170,237.75 C1171.55033,248.410597 1171.55033,259.239403 1170,269.9 C1169.87729,273.279102 1169.37412,276.633609 1168.5,279.9 C1166.2,295.95 1162.35,324.3 1170.8,334.3 C1173.73328,337.446783 1178.06932,338.879559 1182.3,338.1 L1185,338.1 C1192.56236,338.642168 1199.84709,335.142456 1204.15,328.9 C1211.8,320.5 1216.4,303.65 1214.15,279.9 C1213.4,276.05 1212.6,269.9 1211.85,263.8 C1208.23579,247.364467 1206.19326,230.622389 1205.75,213.8 C1206.5,189.3 1213.4,173.8 1228.7,164.75 C1233.84833,161.843167 1239.63879,160.26239 1245.55,160.15 C1257.37626,159.633048 1268.74745,164.752868 1276.2,173.95 C1281.68916,180.341566 1286.09722,187.586998 1289.25,195.4 C1292.3,203.05 1293.85,209.95 1296.9,216.85 C1300.14782,229.119378 1305.88319,240.590121 1313.75,250.55 C1318.07647,255.002183 1323.82631,257.797489 1330,258.45 C1335.57661,258.2735 1340.72115,255.402996 1343.8,250.75 C1351.27695,242.085588 1354.88938,230.742543 1353.8,219.35 C1353.24974,201.898205 1345.80645,185.375557 1333.1,173.4 C1325.36715,168.069066 1317.16692,163.450162 1308.6,159.6 C1296.90124,153.0835 1286.08073,145.102531 1276.4,135.85 C1264.24563,121.709594 1260.20495,102.318084 1265.7,84.5 C1265.7,83.75 1266.45,83 1266.45,82.2 C1271.05,63.85 1273.35,56.2 1267.2,50.8 C1264.67736,49.2462864 1261.76227,48.4481075 1258.8,48.5 C1254.82722,48.8848556 1251.07147,50.4919659 1248.05,53.1 C1244.30713,57.4879029 1241.20927,62.3872419 1238.85,67.65 C1235.49727,75.9444798 1230.55447,83.5030574 1224.3,89.9 C1215.95482,99.4038604 1203.99541,104.957095 1191.35,105.2 L1190.6,105.2 C1175.82011,104.136922 1162.17953,96.8716316 1153.05,85.2 C1148.45,79.85 1143.85,73.7 1140.05,68.35 C1136.25,63 1131.6,56.1 1127,49.95 C1115.5,34.65 1108.65,59.15 1103.25,83.65 M1070.3,77.55 L1070.3,76 C1073.4,56.85 1077.2,27.75 1097.9,14.7 C1104.63552,10.8506439 1112.24259,8.78537714 1120,8.7 C1145.3,8.7 1161.4,33.95 1171.35,50.05 C1177.5,59.25 1182.1,70.05 1188.95,70.05 C1195.8,70.05 1200.45,63.95 1209.65,48.6 C1213.5,41.7 1218.85,34.85 1223.45,27.95 C1231.6314,17.8017178 1244.1237,12.1116062 1257.15,12.6 C1269.09734,12.4345607 1280.7235,16.4692111 1290,24 C1299.81938,33.5574392 1304.62552,47.1440269 1303,60.75 C1302.74455,70.3378048 1300.40722,79.755389 1296.15,88.35 C1296.15,89.1 1295.35,89.9 1295.35,90.65 C1293.00747,97.7992357 1293.84498,105.609943 1297.65,112.1 C1304.79459,119.097448 1313.10169,124.799063 1322.2,128.95 C1332.2,135.1 1342.2,136.6 1349.75,144.3 C1369.15584,162.217149 1380.94932,186.895758 1382.7,213.25 C1384.994,233.406261 1378.90118,253.619254 1365.85,269.15 C1357.32821,281.910573 1342.89157,289.449288 1327.55,289.15 C1312.45006,289.307038 1297.96302,283.186266 1287.55,272.25 C1275.0878,259.524399 1266.33946,243.63562 1262.25,226.3 C1260.56112,220.211742 1258.24889,214.31388 1255.35,208.7 C1251.55,200.25 1248.5,193.35 1243.1,193.35 C1237.7,193.35 1236.2,206.4 1236.2,214.05 C1236.7427,228.772845 1238.80362,243.400354 1242.35,257.7 C1243.9,265.4 1244.65,271.5 1245.4,277.7 C1251.55,335.9 1223.95,374.2 1183.35,374.2 L1178.75,374.2 C1164.68206,374.210575 1151.3331,367.984725 1142.3,357.2 C1124.65,335 1129.25,300.5 1133.1,275.25 C1133.85,272.15 1133.85,268.35 1134.65,266.05 C1136.2278,254.599282 1133.78952,242.955589 1127.75,233.1 C1125.67238,230.658416 1122.45807,229.498222 1119.3,230.05 L1117.75,230.05 C1104.75,230.8 1098.6,245.35 1090.95,276.75 C1087.48473,294.423202 1081.27636,311.44561 1072.55,327.2 C1061.04611,345.948047 1040.15803,356.84367 1018.2,355.55 C1013.30064,355.410736 1008.4194,354.892523 1003.6,354 C993.303729,352.551271 983.693487,347.99905 976.05,340.95 C968.283733,334.445151 962.008328,326.345105 957.65,317.2 C950.749446,300.796164 950.749446,282.303836 957.65,265.9 C962.155577,255.382463 968.373156,245.68439 976.05,237.2 C981.371737,231.027948 986.04621,224.326195 990,217.2 C996.303466,207.485544 996.593615,195.047825 990.75,185.05 C981.59188,171.790594 970.483207,159.990789 957.8,150.05 C954.79924,147.423647 951.976353,144.60076 949.35,141.6 C923.2,116.7 895,88.35 900,51.6 C902.314488,33.2281027 913.537976,17.1785156 930,8.7 C939.911011,3.45569557 950.988689,0.806685698 962.2,1 C981.576009,0.942743585 999.624942,10.8356732 1010,27.2 C1019.55205,41.2781894 1027.51717,56.3699997 1033.75,72.2 C1042.95,95.95 1059.05,145.75 1070.5,77.6" fill-rule="nonzero"></path>
      <path d="M2173.5,164.2 L0,173.4"></path>
      <path d="M2017.95,227.8 C2016.45,224.7 2017.95,222.45 2021.05,222.45 L2033.3,222.45 C2034.8937,222.407842 2036.37066,223.28236 2037.1,224.7 L2070,297.5 L2101.4,224.7 C2102.15522,223.282901 2103.64466,222.412451 2105.25,222.45 L2116,222.45 C2119.05,222.45 2121.35,224.7 2119.05,227.8 L2060.85,349.6 C2060.19794,351.206838 2058.75987,352.36108 2057.05,352.65 L2050,352.65 C2047.92011,352.924921 2045.95636,351.622867 2045.4,349.6 C2045.28124,348.758636 2045.5581,347.909626 2046.15,347.3 L2062.25,317.3 L2017.95,227.8 Z" fill-rule="nonzero"></path>
      <path d="M1854,302.85 C1863.91556,302.977181 1873.39955,298.800582 1880,291.4 L1880,273.75 C1873.72435,268.752666 1865.80276,266.290551 1857.8,266.85 C1844,266.85 1835.6,273 1835.6,284.5 C1836.25478,294.350471 1844.09953,302.195217 1853.95,302.85 M1860,252.2 C1867.05026,252.688175 1873.89356,254.792492 1880,258.35 C1880,240.7 1873.1,233.05 1860,233.05 C1851.76894,232.903767 1843.62336,234.738665 1836.25,238.4 C1835.49033,238.794531 1834.6028,238.862901 1833.79166,238.589378 C1832.98053,238.315855 1832.31564,237.723996 1831.95,236.95 C1831.79829,236.687659 1831.69657,236.399449 1831.65,236.1 L1829.35,230 C1828.58082,228.05326 1829.4856,225.846475 1831.4,225 L1831.65,225 C1840.0808,220.378272 1849.6567,218.26186 1859.25,218.9 C1883,218.9 1894.25,231.15 1894.25,258.9 L1894.25,311.3 C1894.42624,313.605658 1892.74748,315.637844 1890.45,315.9 L1884.3,315.9 C1882.41741,316.076713 1880.73484,314.726224 1880.5,312.85 L1880.5,306.7 C1872.47127,313.542988 1862.24904,317.269843 1851.7,317.2 C1834.20846,316.629325 1820.48862,301.991845 1821.05,284.5 C1821.05,266.1 1836.4,253.05 1860.15,252.3" fill-rule="nonzero"></path>
      <path d="M1717.65,260.75 L1665.55,260.75 C1664.74203,260.64377 1664.10623,260.007966 1664,259.2 C1666.29312,245.039642 1678.81837,234.834676 1693.15,235.45 C1706.94295,235.450482 1718.35446,246.182994 1719.2,259.95 C1718.4,259.2 1718.4,260.75 1717.65,260.75 M1692.35,220.75 C1664,220.75 1646.4,243.75 1646.4,269.75 C1646.4,295.75 1664,318.8 1692.35,318.8 C1704.66131,318.763983 1716.67893,315.036781 1726.85,308.1 C1729.9,305.8 1729.15,304.25 1727.6,301.95 L1723.75,296.6 C1721.45,294.3 1720.7,295.05 1716.9,297.35 C1710.09773,301.90228 1702.0848,304.306161 1693.9,304.25 C1677.92334,303.714263 1664.6598,291.739059 1662.5,275.9 C1662.38124,275.058636 1662.6581,274.209626 1663.25,273.6 L1729.15,273.6 C1731.36836,273.481084 1733.24223,271.912739 1733.75,269.75 C1733.75,268.25 1734.5,265.2 1734.5,263.65 C1736.05213,241.270971 1719.30975,221.808791 1696.95,220 C1695.37763,219.848745 1693.79289,220.107127 1692.35,220.75" fill-rule="nonzero"></path>
      <path d="M1524.6,299.05 C1523.8,296.75 1522.3,295.95 1518.45,297.5 C1514.57629,301.352203 1509.36226,303.556075 1503.9,303.65 C1500.90119,303.470556 1498.11427,302.044461 1496.2145,299.717242 C1494.31473,297.390022 1493.47545,294.374027 1493.9,291.4 L1493.9,240.05 C1493.9,238.5 1494.65,237 1496.2,237 L1520.7,237 C1523.01449,237.148117 1525.03816,235.454393 1525.3,233.15 L1525.3,227.8 C1525.50234,225.468096 1523.78109,223.411536 1521.45,223.2 L1497.7,223.2 C1496.2463,223.382189 1494.905,222.39271 1494.65,220.95 C1494.59995,220.685682 1494.59995,220.414318 1494.65,220.15 L1494.65,195.6 C1494.82465,193.276907 1493.11754,191.237245 1490.8,191 L1484,191 C1482.8196,190.95954 1481.67154,191.389996 1480.80873,192.196543 C1479.94591,193.00309 1479.43912,194.119559 1479.4,195.3 L1479.4,220.3 C1479.25668,221.94037 1477.94248,223.233367 1476.3,223.35 L1465.6,223.35 C1463.2858,223.146558 1461.23705,224.839001 1461,227.15 L1461,232.2 C1460.79917,233.405188 1461.12052,234.638906 1461.88378,235.592977 C1462.64704,236.547047 1463.78012,237.131376 1465,237.2 L1474.2,237.2 C1475.75,237.2 1476.5,238.7 1476.5,240.25 L1476.5,293.65 C1476.5,308.25 1484.95,318.95 1503.35,318.95 C1511.27601,318.81305 1518.88877,315.83183 1524.8,310.55 C1526.78862,309.640423 1527.69608,307.316458 1526.85,305.3 C1526.72762,304.96676 1526.54072,304.660925 1526.3,304.4 L1524.6,299.05 Z" fill-rule="nonzero"></path>
      <path d="M1591.25,220.9 C1581.63231,220.916035 1572.35792,224.476261 1565.2,230.9 C1565.2,230.9 1562.9,233.2 1562.9,230.15 L1562.9,185.65 C1563.04812,183.335513 1561.35439,181.311843 1559.05,181.05 L1552.15,181.05 C1549.82691,180.875355 1547.78724,182.582463 1547.55,184.9 L1547.55,312.2 C1547.37535,314.523093 1549.08246,316.562755 1551.4,316.8 L1558.3,316.8 C1560.60566,316.976238 1562.63784,315.297475 1562.9,313 L1562.9,262.2 C1562.4674,249.791343 1571.96152,239.279205 1584.35,238.45 C1586.06114,237.828127 1587.88382,237.57261 1589.7,237.7 C1602.78777,237.362205 1613.71135,247.61699 1614.2,260.7 L1614.2,312.2 C1614.02535,314.523093 1615.73246,316.562755 1618.05,316.8 L1625.7,316.8 C1628.0142,317.003442 1630.06295,315.310999 1630.3,313 L1630.3,263.8 C1631.05,234.7 1615,220.9 1591.25,220.9" fill-rule="nonzero"></path>
      <path d="M1961.25,302.85 C1952.86352,302.762215 1944.76161,299.796807 1938.3,294.45 L1938.3,245.4 C1944.21838,238.360218 1952.85713,234.177245 1962.05,233.9 C1981.2,233.9 1992.05,250 1992.05,268.4 C1993.07422,286.368133 1979.36527,301.77673 1961.4,302.85 M1963.7,219.35 C1954.36119,219.462876 1945.27691,222.4096 1937.65,227.8 L1937.65,227.2 C1937.85245,224.89567 1936.15352,222.861429 1933.85,222.65 L1926.95,222.65 C1924.64434,222.473762 1922.61216,224.152525 1922.35,226.45 L1922.35,348.05 C1922.14766,350.381904 1923.86891,352.438464 1926.2,352.65 L1933.05,352.65 C1934.16497,352.761292 1935.27819,352.42244 1936.14206,351.708807 C1937.00593,350.995174 1937.54883,349.965934 1937.65,348.85 L1937.65,311.3 C1945.06653,316.452251 1953.92125,319.129666 1962.95,318.95 C1989,318.95 2007.95,297.5 2007.95,268.95 C2007.95,240.4 1989.55,218.95 1963.5,218.95" fill-rule="nonzero"></path>
      <path d="M1797.3,219.35 C1787.30729,219.304858 1777.6916,223.161897 1770.5,230.1 L1770.5,227.2 C1770.70245,224.89567 1769.00352,222.861429 1766.7,222.65 L1760,222.65 C1757.6858,222.446558 1755.63705,224.139001 1755.4,226.45 L1755.4,310.55 C1755.22376,312.855658 1756.90252,314.887844 1759.2,315.15 L1766.1,315.15 C1768.42309,315.324645 1770.46276,313.617537 1770.7,311.3 L1770.7,248.45 C1776.62076,239.891991 1786.34369,234.759925 1796.75,234.7 C1799.95671,234.718025 1803.11207,235.506865 1805.95,237 C1808.13252,238.091262 1810.78675,237.221388 1811.9,235.05 L1811.9,234.7 L1814.95,226.25 C1815.7,220.15 1804.2,219.35 1797.3,219.35" fill-rule="nonzero"></path>
      <path d="M2657.5,123.7 L585,132.2"></path>
    </g>
  </g>
</svg>