<svg id="Layer_1" data-name="Layer 1" xmlns="http://www.w3.org/2000/svg" viewBox="0 0 295 42.4">
  <polygon id="backgroundrect" fill="none" points="0 0 0 0 0 0 0 0"/>
  <g id="svg_1" data-name="svg 1">
    <path id="svg_2" data-name="svg 2" class="feathericons" d="M259.5,5.5c0-2.9.9-3.9,2.4-3.9s2.7.6,4.1,3.9l8.5,19.3V37c0,2.9-1.2,3.7-4.5,4.1v.8h15.7v-.8c-3.4-.4-4.5-1.3-4.5-4.1V24.8l8.2-18.6c1.6-3.6,3.2-4.4,5.6-4.8V.6H283.5v.8c3.9.4,5.3,1.5,4.2,4.1L280.5,22,273.1,5.1c-1-2.3-.4-3,3.9-3.6V.7H252.3v.8c3.9.6,5.1,1.3,5.1,4.1V28.2L239.3.7h-8.9v.8c2.9.4,3.8,1.3,3.8,4.1V37.1c0,2.9-.8,3.9-1.8,3.9s-1.4-.4-2.7-3.9L216.3.5h-.8l-12.9,35c-1.4,3.9-3.6,5.2-5.8,5.7V42h11.8v-.8c-4.1-.4-5.4-2-4.5-4.6l2.9-8h12.2l2.8,7.5c1.2,3.4.5,4.4-3,5v.8h22.4v-.8c-3.9-.6-5.1-1.3-5.1-4.1V8.8L258.2,42h1.3V5.5ZM101.6,21.2c0-12.8,6.1-19.5,13.2-19.5,4.2,0,6.9.9,8.5,2.6a15,15,0,0,1,3.1,5.6h.8V1.3A59.61,59.61,0,0,0,115.7,0C105,0,93.9,6.9,93.9,21.2S105,42.4,115,42.4a41.37,41.37,0,0,0,12-1.8l1.2-8.1-.7-.2a21.42,21.42,0,0,1-3.2,4.5,13.64,13.64,0,0,1-9.6,4C107.9,40.7,101.6,34.2,101.6,21.2Zm88.7,1.2a21.2,21.2,0,0,1-3.3-.3V2.1h3.3c5.5,0,7.9,2.9,7.9,10.1S195.7,22.4,190.3,22.4ZM61.8.6v9.9h.8c1.2-6.3,3.7-8.3,7.9-8.3h2V37c0,2.9-1.2,3.7-4.5,4.1v.8H83.7v-.8c-3.4-.4-4.5-1.3-4.5-4.1V2.1h2c4.2,0,6.7,2,7.9,8.3h.8V.5L61.8.6ZM49.3,42.4c6.8,0,14-3.9,14-11.9,0-4.7-2.5-8.6-6.9-11l-7.8-4.3c-4.1-2.3-5.3-4.4-5.3-7.4,0-3.4,2.5-6.1,7.2-6.1a7.43,7.43,0,0,1,5.4,1.9c1.2,1.2,2.4,3.2,3.5,6.8h.7V1.3A32.24,32.24,0,0,0,51,0C44.3,0,39.3,4.2,39.3,11.3a12.79,12.79,0,0,0,6.6,11l7.2,4c4.1,2.3,5.4,4.5,5.4,7.8,0,3.9-4,6.7-8.4,6.7a9.65,9.65,0,0,1-7-2.7,13.85,13.85,0,0,1-3.1-5h4.7v-.8c-1.3-.3-2.1-.5-3.2-3.1L32.3,7.3h-.8l-9,21.4c-1.2,2.9-2,3.4-3.4,3.6v.8h8v-.8c-2.9-.3-3.7-1.7-3-3.5l1.4-3.4h8.1l1.8,4.2c.8,1.9-.4,2.4-3.3,2.6V33h6.4v7.9A42.66,42.66,0,0,0,49.3,42.4ZM150.9,42,162.8,8.9l.9,28.2c.1,2.8-1,3.6-4.4,4v.8h32.8v-.8c-3.9-.6-5.1-1.3-5.1-4.1V23.7a24.87,24.87,0,0,0,3.6.3c7.9,0,14.7-2.9,14.7-11.7S198.5.6,190.6.6H176.5v.8c2.9.4,3.8,1.3,3.8,4.1V37c0,2.9-1.2,4.1-4.5,4.1h-.1c-3.5,0-5-1.3-5.1-4L169.4,5.6c-.1-2.9.9-3.8,4-4.2V.6h-9.7L153.1,30.3,142.5.6H132.1v.8c3.1.4,4.1,1.4,4,4.2L135,35.8a5.08,5.08,0,0,1-4.6,5.3v.8h11v-.8c-2.8-.4-4.4-2.2-4.3-5.3L138,8.3l12.1,33.6.8.1ZM119,33.3c5.3,0,12.1-4.7,12.1-12.1S124.4,9.1,119,9.1s-12.1,4.7-12.1,12.1S113.6,33.3,119,33.3Zm0-22.5c3.4,0,5.7,2.8,5.7,10.4s-2.4,10.4-5.7,10.4-5.7-2.8-5.7-10.4S115.6,10.8,119,10.8Zm99.7,16.1H207.6l5.5-15.2ZM33.1,23.8H26.3l3.4-8.3Zm-13,2.1h.8V13.5h-.8c-1.3,4.4-2.6,5.4-5,5.4H10.5V2.1h7.3c4.2,0,6.7,2,7.9,8.3h.8V.5H0v.8c2.9.4,3.8,1.3,3.8,4.1V36.9c0,2.9-.9,3.7-3.8,4.1v.8H15.6V41c-3.9-.6-5.1-1.3-5.1-4.1V20.4h4.6C17.4,20.5,18.8,21.5,20.1,25.9Z"/>
  </g>
</svg>