<svg id="Layer_1" data-name="Layer 1" xmlns="http://www.w3.org/2000/svg" viewBox="0 0 590 100.1">
<path class="feathericons" d="M137.5,88.8a12.76,12.76,0,0,1-3,8.8H195V67.2a36,36,0,0,1-14.4,2.9H167.5v-10h6.9A25.85,25.85,0,0,1,185,62V35.7a26.15,26.15,0,0,1-10.6,1.9h-6.9V26.4h13.1A36,36,0,0,1,195,29.3V0H134.4c2.3,2,3.1,5.7,3.1,8.8ZM85,37.5v-10h1.3c3.4,0,7.4.5,10,1.9V0H53.8V97.5H88.1c-2.3-2-3.1-5.7-3.1-8.8V61.2h16.2V88.7c0,3-.8,6.7-3.1,8.8h34.4V0H101.3V37.5Zm-74.9-10h7.4V88.7c0,3-.8,6.7-3.1,8.8H48.8V0H0V29.4C2.7,28,6.7,27.5,10.1,27.5Zm517.4,10H490.1a20.83,20.83,0,0,1-6.3-.9V60.9a20.83,20.83,0,0,1,6.3-.9H500v7.5c-1.2,1.1-3.9,1.7-6.6,1.7a19.51,19.51,0,0,1-19.7-19.8c0-10.9,8.1-20.6,19.5-20.6,6.9,0,14.6,2.2,23.1,6.3V.1h-25c-27,0-48.5,20.9-48.5,49.1,0,27.6,21.7,50.9,49.8,50.9,15.5,0,29.9-6.3,37.4-14a18,18,0,0,1-2.5-8.8V37.5Zm48.1-11.3A36,36,0,0,1,590,29.1V0H529.4c2.3,2,3.1,5.7,3.1,8.8v80a12.76,12.76,0,0,1-3,8.8H590V67.2a36,36,0,0,1-14.4,2.9H562.5v-10h6.9A25.85,25.85,0,0,1,580,62V35.7a26.15,26.15,0,0,1-10.6,1.9h-6.9V26.4h13.1Zm-145,27.3a31.85,31.85,0,0,0,8.4-21C439,10,422.3,0,404.3,0H365.6c2.3,2,3.1,5.7,3.1,8.7v80a12.86,12.86,0,0,1-3.1,8.8h37.2c-2.3-2.5-2.9-5.9-2.9-8.8V68.9c10.7,2,17.8,11.9,17.8,19.9a12.51,12.51,0,0,1-3,8.7h37.1c-2.3-2.5-2.9-6-3.1-9-1.2-17.3-7.1-29.4-18.1-35ZM400,43.9V26.1c5,0,11.4,1.4,11.4,8.9S405,43.9,400,43.9ZM263.7,53.8l-10-27.5h15L278.7.1h-70a34,34,0,0,1,5.8,7.6l38.7,89.9h21.1l31.9-75V88.8c0,3.1-.8,6.7-3.1,8.8h60.6V67.2c-4.1,1.9-9.4,4.1-14.4,4.1H336.2V60h6.9a25.56,25.56,0,0,1,10.6,1.9V35.6a26.15,26.15,0,0,1-10.6,1.9h-6.9v-10h13.1a36,36,0,0,1,14.4,2.9V0h-80Z"/>
</svg>