<svg id="Layer_1" data-name="Layer 1" xmlns="http://www.w3.org/2000/svg" viewBox="0 0 2233 448">
<path class="feathericons" d="M0,0H447.8V448H0Z"/>
<path fill="#fffefe" d="M133,111.6a39.54,39.54,0,0,1,6-1c9.6-.2,19.2.4,28.8.7,1.5-.2,2.1,1.2,2.6,2.3,14.6,30,29.1,60.2,43.9,90.1,3.2,6.2,6,12.6,9.6,18.6,3-4.9,5.5-10.2,8.2-15.3,16.6-32,32.3-64.4,48.7-96.6,10.8.3,21.8-.7,32.5,1-2,6.1-5.5,11.6-8.2,17.3-21.5,41.1-43.5,81.9-65.2,122.9a10.24,10.24,0,0,0-1.1,5.1v87.9c-10.4,0-20.9.1-31.4,0,.1-28.6,0-57.2.1-85.8,0-3.1.4-6.4-1.4-9.1q-30-56.1-59.8-112.3c-4.4-8.5-9.3-16.9-13.3-25.8Z"/>
<path class="feathericons" d="M1628.5,204.1c-.5-7.4-1.6-15.2-6.2-21.3-5.7-8.4-14.8-13.7-24.1-17-16-6-33.4-.3-47.4,8-7.2,4.1-13.2,10-20.3,14.4a94.43,94.43,0,0,0-5.9-24.1c-8.3.2-16.4,3.1-24.3,5.6,1.5,6.8,3.7,13.4,4.1,20.4,1.3,24.6,1.1,49.3,1.3,74,.2,24,.8,47.9.8,71.9,7.8.2,15.7.2,23.5,0,.1-42.2-.2-84.5.1-126.8,10.5-8.7,22-16.3,34.8-21.1,5.8-2.2,12.1-1.9,18.2-1.7,8.2.2,15.7,6.6,18.1,14.3,2,16.1,1.1,32.3,1.5,48.4,0,29,.6,57.9.6,86.9,9,.2,18,.3,26.9,0-.1-17.6-.4-35.3-.4-52.9C1629.5,256.7,1629.9,230.4,1628.5,204.1Z"/>
<path class="feathericons" d="M1421.2,167.5c-.4,7.5-.2,15-.2,22.5.1,48.6-.2,97.3.1,145.9,9,.2,17.9.2,26.8,0V234c-.2-23.6.2-47.3-.9-70.9C1438.4,164.7,1429.8,166.2,1421.2,167.5Z"/>
<path class="feathericons" d="M1177.3,200.7c-.5-5.1-1.1-10.3-3.1-15.1s-6-8.6-9.8-12.2a39.82,39.82,0,0,0-31.6-10.4c-12.4,1.2-23.9,6.8-34.1,13.8-5.8,4-10.9,9.2-17.4,12.1-3-5-5.6-10.4-9.9-14.4-4.1-3.9-9.1-6.5-14.1-9a25,25,0,0,0-9.3-2.7c-14.4-.6-28.6,4.7-40.2,13-5.1,3.4-9.3,8-14.8,10.8a71.81,71.81,0,0,0-5.9-23.7,195.8,195.8,0,0,0-23.7,6c.7,4.3,2.1,8.3,2.8,12.4,1.3,9.4,1.3,19,1.5,28.5,1.2,42,.7,83.9,1.4,125.9,7.8.3,15.7.2,23.5,0,0-40.9.1-81.9,0-122.9,0-1.7-.2-3.7,1.5-4.8,10.2-9.1,21.9-17.5,35.4-20.7,8.7-2.2,19.5-.5,25,7.2,3.6,7.2,2.8,15.6,3.3,23.4.7,7.6.4,15.3.5,23v94.9c8.9.2,17.9.1,26.8,0,.1-40.6,0-81.3,0-122,.1-1.2-.3-2.9.9-3.8,3.6-3.4,7.6-6.4,11.4-9.6,8-6.4,16.9-13.1,27.5-14.1,5.9-.4,12.6-.8,17.8,2.7a20.15,20.15,0,0,1,8.3,13.9c1.4,17.3,1,34.7,1.1,52v80.9c9,.3,18,.2,27,.1,0-18-.1-36-.1-54C1177.9,254.9,1179.3,227.7,1177.3,200.7Z"/>
<path class="feathericons" d="M1802.2,312c-2-8.2-1.7-16.7-1.9-25-.3-28.1.9-56.1-.1-84.2-.5-18.8-16-35.2-34.2-38.6-7.3-1.2-14.7-.8-22-.9-20.9-.1-40.5,8.4-58.4,18.3-2.2,1.1-4.6,3.2-3.1,5.9,3,5.4,6.8,10.3,10.3,15.4,13.3-9.5,28.6-16.5,44.9-18.5,8.6-1.3,18-1.2,25.9,3,6.6,3.6,10.1,11,11.1,18.2a146.1,146.1,0,0,1,1.5,25.6c-8.8.4-17.6.4-26.3,1.2-19.1,1.4-39,5.2-54.7,16.9a52.38,52.38,0,0,0-21.2,41.8c-.4,16.9,8.1,34.5,23.4,42.6,9.4,4.7,20.1,6.4,30.6,6.2a61.52,61.52,0,0,0,33-9.8c5.6-3.4,10-8.5,15.8-11.6,3.7,7.1,8.1,14.2,14.6,19,2.4,1.8,6.1,4.5,9,2,5.1-4.3,8.2-10.2,12.1-15.5C1808.5,320.5,1803.4,317.5,1802.2,312Zm-27.3-20.5c-.4,7.7-5.9,13.9-11.6,18.6-6.8,5.4-14.6,10.1-23.3,11.2-7.3.6-14.9.4-21.8-2.5-5.9-2.5-9.8-8.1-12.2-13.8s-1.6-12.1-1.5-18.2c.3-5.5.3-11.3,3.2-16.2,5.2-8.7,14-14.7,23.7-17.5,8-2.2,16.4-2.7,24.7-3.5,6.6-.6,13.2.9,19.8.7C1775.7,264,1776,277.8,1774.9,291.5Z"/>
<path class="feathericons" d="M904.7,195.3a69.28,69.28,0,0,0-37-29.9c-6.7-2.2-13.8-1.9-20.7-2.1a127.85,127.85,0,0,0-17.5.4c-7.5,1.4-14.5,4.8-20.9,8.9-14.1,8.8-24.1,23.1-29.3,38.7-5.5,15.9-5.2,32.9-4.8,49.4.6,17.1,3.9,34.7,13.9,49,9,13.3,22.5,23.6,38.1,27.7,17.4,4.6,36.6,3.1,52.6-5.2s28.2-23.4,33.7-40.5c5.9-18.3,5.3-37.7,4.4-56.6C916.6,221,911.7,207.4,904.7,195.3Zm-16.5,86.4a49.3,49.3,0,0,1-11.8,26.5c-8.2,8.6-20.8,11.7-32.3,10.9-12.1-.8-24.7.6-30.9-10.4-5.6-10.4-7.8-29.3-9.3-40.9-.8-9.6-1.7-19.3-.8-28.9.8-13,1.8-26.7,8.9-38,5-7.9,13.5-13.1,22.5-15.2,10.9-2.6,22.9-1.7,32.7,4a36.89,36.89,0,0,1,15.6,17.5c5.2,11.9,6,25,6.6,37.7C889.6,257.2,889.9,269.5,888.2,281.7Z"/>
<path class="feathericons" d="M2084.8,190.3a65.54,65.54,0,0,0-38.1-25.7,94,94,0,0,0-31.3-.9,55.61,55.61,0,0,0-31.8,15c-11.9,11-19.6,26-23.5,41.6-2.8,13.8-2.6,27.9-2.3,41.9.6,8.3,1,16.7,3.6,24.7,4.7,15.8,13.4,31.1,27.1,40.8,15.6,11.1,35.9,14.4,54.5,11.1,15.3-2.8,30.3-10.3,39.9-22.8,11.9-15.7,17.9-35.3,18.4-54.9a197.19,197.19,0,0,0-2-36A86.93,86.93,0,0,0,2084.8,190.3ZM2072.3,269c-.7,9-1.1,18.2-4.5,26.6-2.9,7.1-7.5,13.9-14.3,17.8-10,5.8-22.3,7.1-33.6,4.6a37.37,37.37,0,0,1-20.8-12c-5.5-6.3-8.1-14.5-9.6-22.5-2.2-12-2.2-24.3-2.5-36.4.3-12.9-.4-26.2,4.7-38.4,4-11.8,14.2-21.8,26.8-23.2,8.8-1.2,18-1.4,26.5,1.5a45.25,45.25,0,0,1,19.7,17.3c5.5,10,6.7,21.5,7.6,32.7A310.51,310.51,0,0,1,2072.3,269Z"/>
<path class="feathericons" d="M2187.9,178.9c-3.6,3.7-7.1,7.5-11.2,10.6-.5-9.1-1.3-18.5-5.6-26.7-8.1,1.9-16.1,4.3-24.1,6.6.5,6.9,2.8,13.6,3,20.4,1,19.7.8,39.4.9,59.1.1,28.9,0,57.9.1,86.9,8.9.2,17.9.2,26.8,0V257.9c-.1-9.7.1-19.3.5-29,.3-6.7-.5-14.2,3.9-19.8a58.72,58.72,0,0,1,16.6-14.4c6.4-3.6,14.1-3.4,21.3-3.6,1.1-.3,3.1.2,3.6-1.3,3.4-8,5.7-16.5,9.3-24.4v-2.1C2216.4,160.3,2199.6,167.3,2187.9,178.9Z"/>
<path class="feathericons" d="M1921.8,186.6c2.7-6.1,5.3-12.3,7.7-18.6-13.9-.6-27.9-.6-41.8-.9.6-16.3,1.8-32.7,3.1-49a197.67,197.67,0,0,0-26.3,6.4c-2.3,14.1-2.5,28.4-3.6,42.6-7.3.2-14.6,0-21.9.1-.2,6.5-.3,12.9,0,19.4,7.5,0,14.9-.1,22.3,0,.2,19.8.1,39.5.1,59.3.1,19.3-.3,38.7.6,58,.8,8.8.3,19.2,7.3,25.7,8.5,9.1,21.8,11,33.7,10.5,8.4-.7,17.2-1.5,24.8-5.5a32.66,32.66,0,0,0-3-15.7c-8.4,2.1-17.3,2.8-25.8.8-5.1-1.4-10.2-5.4-10.6-11-1.6-13.5-.9-27.2-1.2-40.8.2-12-.6-24-.5-36,0-15.1-.1-30.2-.1-45.3C1898.3,186.5,1910.1,186.6,1921.8,186.6Z"/>
<path class="feathericons" d="M704,315.2c-8.2,2.1-16.7,2-25,1.5-15.8-1.6-31.4-8.7-41.9-20.8-12-13.4-18.1-31.1-20.3-48.7-.8-12.7-.2-25.4.3-38.1a170.43,170.43,0,0,1,2.4-28.5A99,99,0,0,1,630,153.2c6.8-12.2,17.5-22.4,30.6-27.4,15.7-6.3,33.6-5.2,49.3.4,6.5,2.1,12.2,5.9,18,9.3,4.6-5.7,9.4-11.1,13-17.4-5-4.4-11-7.3-17-10-14.6-6.8-31-7.9-46.9-7.6-15.6.2-30.5,6.6-43.3,15.2-17.2,11.9-29.1,29.9-37.1,49.1-6.5,15.2-9.2,31.8-9.5,48.3-1,8.7,0,17.4.4,26.1,1.1,11.7,3,23.4,6.9,34.5,5.8,16.4,15.5,31.7,28.7,43.2,11.4,9.9,25.2,17.4,40.1,20.5,20.6,2,42.3,1.8,61.8-6.1a186.17,186.17,0,0,0,21.1-10.2,132.28,132.28,0,0,0-14.3-17.4C722.7,307.8,713.9,313,704,315.2Z"/>
<path class="feathericons" d="M1335.7,169.1c-14.9-7.8-33.3-7.7-48.6-1-9.6,3.8-17.5,10.5-25.6,16.7-.2-14.3-.1-28.6-.8-42.9-.1-15-.6-30-1.6-45-.3-3.1-1-8-5.1-8.2-7.5-.1-14.7,2.2-21.9,3.9,3.5,18.6,2,37.6,3.1,56.1.1,48.4.8,96.7.2,145.1-.4,13.8-.4,27.7-3.8,41.2,8.3,1.4,16.8.8,25.2.7,1.8-5.8,3.2-11.6,5-17.4,4.6,3.7,8.8,7.9,13.8,11a62.31,62.31,0,0,0,53.8,5.9c10.9-3.9,19.9-12.1,26.7-21.3,11.5-15.9,16.8-35.6,18.2-55,.9-16.6-.4-33.6-5.7-49.5C1363,192.6,1351.8,177.1,1335.7,169.1Zm8.8,95c-1.3,12.2-3.6,24.6-9.8,35.3a33.66,33.66,0,0,1-20.2,15.6c-17.6,4.5-37.1-1.5-50.1-13.9-1.7-1.7-4.1-3.3-3.7-6v-77a76.92,76.92,0,0,1,.2-9.6c8.8-9.7,19.5-18.9,32.9-20.8,7.4-.6,14.9-.8,22.2.8,8.9,1.9,16.5,8.3,21,16,5.6,9.5,7.7,20.6,8.2,31.5C1346.2,245.4,1345.1,254.8,1344.5,264.1Z"/>
<path class="feathericons" d="M1454,108.9a25.8,25.8,0,0,0-10.3-12.7,23.44,23.44,0,0,0-16.3-.8c-9.6,4-15.2,15.8-11.6,25.6,2.7,8.7,12.4,13.9,21.2,12.9C1448.4,132.7,1457.5,120.1,1454,108.9Z"/>
</svg>