<svg id="Layer_1" data-name="Layer 1" xmlns="http://www.w3.org/2000/svg" viewBox="0 0 590 58.86">
<path class="feathericons" d="M114,21.19c5,0,9.89,0,14.8,0a.9.9,0,0,1,.66.36c2.38,3.62,4.73,7.25,7.1,10.88q5,7.66,10.07,15.33c1.6,2.43,3.18,4.88,4.77,7.31l.43.6V21.24h14.42V79.85c-.21,0-.43,0-.65,0-4.6,0-9.19,0-13.79,0a1,1,0,0,1-1-.51C147.92,74.9,145,70.44,142,66c-1.78-2.71-3.54-5.44-5.32-8.16l-7.86-12a.27.27,0,0,0-.26-.15V79.83H114Z" transform="translate(0 -21.17)"/>
<path class="feathericons" d="M14.42,79.86H0V21.25H13.49L28.36,52.73c.7-1.5,1.32-2.87,2-4.22,1.63-3.43,3.28-6.85,4.92-10.28,1.28-2.69,2.57-5.38,3.85-8.08s2.67-5.63,4-8.45a.73.73,0,0,1,.76-.52c4.16,0,8.32,0,12.48,0l.37,0v.66c0,4.55,0,9.1,0,13.65a2.24,2.24,0,0,1-.33,1.06c-1.25,2.23-2.52,4.43-3.8,6.64S50,47.72,48.67,50s-2.54,4.42-3.82,6.63-2.6,4.49-3.9,6.73S38.41,67.76,37.13,70s-2.6,4.49-3.9,6.73c-.55,1-1.08,1.93-1.66,2.87a.67.67,0,0,1-.51.3c-1.88,0-3.77,0-5.65,0a.88.88,0,0,1-.63-.39c-1.22-2.14-2.4-4.3-3.6-6.45l-4.91-8.74c-.59-1.06-1.17-2.13-1.85-3.37Z" transform="translate(0 -21.17)"/>
<path class="feathericons" d="M470.69,80a33.49,33.49,0,0,1-10.42-1.79,28,28,0,0,1-17.84-18.47,24.42,24.42,0,0,1-1.18-6.51c0-1.21-.15-2.42-.13-3.63a30,30,0,0,1,2.2-10.69,26.87,26.87,0,0,1,3.48-6.24,28.07,28.07,0,0,1,8.61-7.58,27.13,27.13,0,0,1,7.72-3,57.26,57.26,0,0,1,5.84-.78c1-.1,2,0,3,0a26,26,0,0,1,7.18,1,28.58,28.58,0,0,1,8.54,3.84,26.64,26.64,0,0,1,5.18,4.41,27.84,27.84,0,0,1,6.66,13,51,51,0,0,1,.7,5.09,29.42,29.42,0,0,1-6.31,20.71,27.43,27.43,0,0,1-9.5,7.54A26.2,26.2,0,0,1,476,79.47C474.26,79.69,472.47,79.85,470.69,80Zm0-46a26,26,0,0,0-2.8.2,15.05,15.05,0,0,0-9.34,5.3,16.86,16.86,0,0,0-3.68,9.57,18.33,18.33,0,0,0,.52,6.16,15.25,15.25,0,0,0,5.37,8.51,16,16,0,0,0,13.36,3,14.47,14.47,0,0,0,8.77-5.26,17,17,0,0,0,3.68-10.27,17.91,17.91,0,0,0-1.38-7.75,14.83,14.83,0,0,0-5.63-6.85A15.37,15.37,0,0,0,470.71,34.07Z" transform="translate(0 -21.17)"/>
<path class="feathericons" d="M98.45,57.15h-18V67.49h24.31V79.85H66V21.24h38.74V34.09H80.47V44.48h18Z" transform="translate(0 -21.17)"/>
<path class="feathericons" d="M272.94,79.89h-7.35c-2.57,0-5.14,0-7.72,0a.85.85,0,0,1-.91-.58c-.77-1.66-1.6-3.3-2.38-5a.83.83,0,0,0-.88-.55c-7.33,0-14.66,0-22,0a.93.93,0,0,0-.72.31c-.93,1.89-1.82,3.79-2.73,5.73H212.6c.26-.6.49-1.18.76-1.74,1.37-2.88,2.75-5.76,4.11-8.64q2.29-4.83,4.57-9.68l4.41-9.39q2.28-4.8,4.54-9.62c1.49-3.15,2.95-6.3,4.44-9.45s3-6.15,4.33-9.27a1.28,1.28,0,0,1,1.5-.9c1.15.05,2.3,0,3.44,0a.72.72,0,0,1,.53.27q1.71,3.54,3.39,7.1c.47,1,.92,2,1.4,3,1.59,3.32,3.2,6.64,4.79,10q1.94,4.07,3.86,8.15l5,10.47q1.92,4.08,3.86,8.15c1.28,2.69,2.56,5.39,3.83,8.08C271.86,77.51,272.37,78.64,272.94,79.89ZM250,60.74c-.62-1.3-1.18-2.53-1.77-3.75-1.46-3-2.94-6-4.38-9a1,1,0,0,0-1-.62,1.13,1.13,0,0,0-1.36.86,10.2,10.2,0,0,1-.48,1.12c-1.53,3.16-3.07,6.31-4.59,9.47-.31.63-.58,1.28-.88,2Z" transform="translate(0 -21.17)"/>
<path class="feathericons" d="M590,39.32H577.42a24.75,24.75,0,0,0-.94-2.94,4.76,4.76,0,0,0-4.09-2.69,6.75,6.75,0,0,0-4,.72,4.93,4.93,0,0,0-2.22,6.06,4.13,4.13,0,0,0,2.25,2.19A52.94,52.94,0,0,0,574,44.6,28.81,28.81,0,0,1,584,49.07a14.14,14.14,0,0,1,5.58,9,23,23,0,0,1,.41,4,17.06,17.06,0,0,1-3.78,10.73,18.41,18.41,0,0,1-10.3,6.54,22,22,0,0,1-7.19.36,18.7,18.7,0,0,1-7.41-2.19,16,16,0,0,1-7.4-8.3,18.57,18.57,0,0,1-1.36-6.87,4.79,4.79,0,0,1,0-.51h12.91A17.71,17.71,0,0,0,566.59,65a5.63,5.63,0,0,0,6.48,2.48,4.55,4.55,0,0,0,3.69-4.49,4.44,4.44,0,0,0-2.11-3.61c-1.79-1.3-3.9-1.84-5.93-2.59-1.51-.57-3.1-1-4.56-1.67A38.47,38.47,0,0,1,558.6,52a13.35,13.35,0,0,1-5.7-8.7,20.35,20.35,0,0,1-.37-5.71,16.84,16.84,0,0,1,3.13-8.47,18.36,18.36,0,0,1,8.46-6.55,19,19,0,0,1,6.21-1.27,20.11,20.11,0,0,1,10.86,2.25,15.11,15.11,0,0,1,5.93,5.83,21,21,0,0,1,2.37,6.44C589.72,37,589.83,38.13,590,39.32Z" transform="translate(0 -21.17)"/>
<path class="feathericons" d="M520.86,61.89a6.45,6.45,0,0,0,1.57,3.89,5.55,5.55,0,0,0,5.29,1.76,6.24,6.24,0,0,0,2.66-1.09,4.47,4.47,0,0,0,.85-5.85,9.61,9.61,0,0,0-4.57-2.89c-2.5-1-5.06-1.8-7.54-2.79a20.21,20.21,0,0,1-7.67-5,13.16,13.16,0,0,1-3.32-6.71,21.87,21.87,0,0,1-.4-4.26,17.14,17.14,0,0,1,3.94-10.8,18.4,18.4,0,0,1,6.06-4.86,18.85,18.85,0,0,1,7.75-2,22.54,22.54,0,0,1,8.78,1.26A15.38,15.38,0,0,1,541,27.38a19.16,19.16,0,0,1,3.92,9.43c.13.82.22,1.64.34,2.51H532.55c-.1-.54-.18-1.11-.31-1.66a5.15,5.15,0,0,0-4.59-4,6.37,6.37,0,0,0-4.31,1,4.6,4.6,0,0,0-2.17,3.58c-.29,2.93,1.56,4.2,3.39,4.85,2.61.93,5.28,1.65,7.91,2.51a21.59,21.59,0,0,1,7.19,3.83,14.64,14.64,0,0,1,5.12,8.52,20.12,20.12,0,0,1,.35,5.78,16.89,16.89,0,0,1-3.4,8.78,18.69,18.69,0,0,1-9.48,6.61,20.6,20.6,0,0,1-7.84.75A19.16,19.16,0,0,1,517.2,78a16.3,16.3,0,0,1-8.93-11.4c-.35-1.5-.45-3.07-.67-4.66Z" transform="translate(0 -21.17)"/>
<path class="feathericons" d="M203.25,34.09V79.85H188.71V34.15H175.63V21.24h40.81V34.09Z" transform="translate(0 -21.17)"/>
<path class="feathericons" d="M320,67.5V79.85H280.13V21.24h14.5V67.5Z" transform="translate(0 -21.17)"/>
<path class="feathericons" d="M398,21.22h14.37V67.48h25.48V79.84H398Z" transform="translate(0 -21.17)"/>
<path class="feathericons" d="M365.13,79.86H350.71V21.24H388.5V34.09H365.13Z" transform="translate(0 -21.17)"/>
<path class="feathericons" d="M56.66,79.87H42.27v-.75c0-4.09,0-8.18,0-12.26a3.45,3.45,0,0,1,.43-1.6C44,63,45.29,60.8,46.59,58.58q3.28-5.64,6.55-11.29c1.1-1.89,2.17-3.8,3.26-5.7.05-.09.11-.17.26-.39Z" transform="translate(0 -21.17)"/>
<path class="feathericons" d="M367.68,46.45h15V58.88h-15Z" transform="translate(0 -21.17)"/>
</svg>