<svg width="59px" height="47px" id="Layer_1" data-name="Layer 1" xmlns="http://www.w3.org/2000/svg" viewBox="0 0 60 40.93">
<g id="Quiz">
<g id="Feather_Site_Redesign_Quiz_005-Copy" data-name="Feather Site Redesign Quiz 005-Copy">
<path id="icon_handshake" data-name="icon handshake" class="feathericons" d="M53.08,22.07a3.74,3.74,0,0,0-.92-1l-3.28-2.74L35.31,7.22a.79.79,0,0,0-1,0c-.6.5-2.45,1.66-6.57,1.66l-1.3,0c-2.66-.14-3.69-.73-3.75-1.24s1-1.48,2.56-2a23.51,23.51,0,0,0,4.45-2.39,18,18,0,0,1,2.46-1.41,3.16,3.16,0,0,1,1.21-.21A16.74,16.74,0,0,1,38.57,3a29.3,29.3,0,0,0,4.77,1.53.81.81,0,0,0,.46,0c.79-.32,3.66-1.42,4.94-1.91L58,17.77Zm-1.37,3.58a2.43,2.43,0,0,1-1.93,1,2.31,2.31,0,0,1-1.37-.44l-12.6-8.95a.8.8,0,0,0-.82-.06.78.78,0,0,0-.45.68,1,1,0,0,0,.39.83L47,27.28a2.36,2.36,0,0,1,.57,3.3,2.44,2.44,0,0,1-1.94,1,2.3,2.3,0,0,1-1.36-.44L32.81,23a.79.79,0,0,0-.77-.09.81.81,0,0,0-.49.61.93.93,0,0,0,.37.91l10,7.09a2.27,2.27,0,0,1,1,1.53,2.33,2.33,0,0,1-.4,1.77,2.4,2.4,0,0,1-3.31.56l-9.58-6.8a.78.78,0,0,0-.63-.13.8.8,0,0,0-.52.36A.86.86,0,0,0,28.66,30l7.08,5a2.29,2.29,0,0,1,1,1.53,2.36,2.36,0,0,1-2.19,2.76H34.4a4.86,4.86,0,0,1-1.46-.47c-.25-.15-2.2-1.35-4.12-2.68a4,4,0,0,0-3.26-6.24,3.82,3.82,0,0,0-.75.08,4,4,0,0,0-3.93-4.55,4.21,4.21,0,0,0-.5,0,3.94,3.94,0,0,0-3.89-4.74,3.89,3.89,0,0,0-2.5.88l-.36.29a4,4,0,0,0-6.47-3l-2.83,2.3L4.05,21a22.2,22.2,0,0,1-1.78-1.41L2,19.41,11.93,3.1h.32a25.65,25.65,0,0,0,2.64.12,67.15,67.15,0,0,0,7.71-.6C23.82,2.47,25,2.33,26,2.26a14.47,14.47,0,0,1,2.2,0A19.25,19.25,0,0,1,24.73,4.1c-1.93.64-3.9,2-3.66,3.74.32,2.37,4,2.56,5.26,2.63l1.4,0c3.76,0,5.91-.89,7.05-1.63L47.85,19.6c1.75,1.45,3,2.52,3.32,2.77a2.32,2.32,0,0,1,.94,1.51A2.36,2.36,0,0,1,51.71,25.65ZM27.05,35.75l-3.11,2.52a2.49,2.49,0,0,1-3.32-.35,2.31,2.31,0,0,1-.52-1.73,2.35,2.35,0,0,1,.86-1.6l3.1-2.52a2.38,2.38,0,0,1,1.5-.52,2.33,2.33,0,0,1,1.83.87A2.37,2.37,0,0,1,27.05,35.75Zm-9.48-.57a2.52,2.52,0,0,1-3.33-.35,2.35,2.35,0,0,1-.52-1.73,2.39,2.39,0,0,1,.86-1.6l4.81-3.9a2.37,2.37,0,1,1,3,3.68ZM12.2,31.26a2.51,2.51,0,0,1-3.33-.34,2.39,2.39,0,0,1-.51-1.75,2.34,2.34,0,0,1,.86-1.58L15,22.89a2.39,2.39,0,0,1,3.33.35A2.38,2.38,0,0,1,18,26.57ZM7.76,26.6a2.5,2.5,0,0,1-3.33-.34,2.33,2.33,0,0,1-.52-1.74,2.36,2.36,0,0,1,.86-1.59l3.4-2.76a2.38,2.38,0,0,1,1.49-.53,2.4,2.4,0,0,1,1.85.87,2.38,2.38,0,0,1-.35,3.33ZM60,18,49.45.63h0l-1.56.55c-1.26.48-3.51,1.35-4.46,1.73a31,31,0,0,1-4.34-1.42A17.31,17.31,0,0,0,33.35,0a4.91,4.91,0,0,0-1.81.32A8.72,8.72,0,0,0,30.3,1,14.46,14.46,0,0,0,25.86.64c-1,.08-2.21.22-3.46.37a51.27,51.27,0,0,1-9.52.51l-1.8-.15L0,19.64,1.18,20.8l0,0c.45.4,1.08.9,1.9,1.5l0,0a3.94,3.94,0,0,0-.82,2,4,4,0,0,0,.87,2.93,4.05,4.05,0,0,0,3.11,1.44,4.9,4.9,0,0,0,.54,0c0,.11-.06.21-.07.32a4,4,0,0,0,.87,2.93,4,4,0,0,0,3.11,1.45,3.79,3.79,0,0,0,1.38-.25A4,4,0,0,0,13,35.85a4,4,0,0,0,3.11,1.44,3.94,3.94,0,0,0,2.4-.8,3.92,3.92,0,0,0,.87,2.45,4,4,0,0,0,3.11,1.45A4,4,0,0,0,25,39.52l2.7-2.19c2.16,1.51,4.3,2.82,4.48,2.92a6.28,6.28,0,0,0,2.14.68h.3a4,4,0,0,0,3.76-4.13,4.05,4.05,0,0,0,2.19.64h.09a4,4,0,0,0,3.16-1.67A3.94,3.94,0,0,0,44.49,33a3.93,3.93,0,0,0,1.14.17h.1a4,4,0,0,0,3.15-1.68,3.92,3.92,0,0,0,.68-3l-.06-.29h.36a4,4,0,0,0,3.84-4.59l5-4.43.09-.08Z" transform="translate(0)"/>
</g></g></svg>