<svg width="102px" height="71px" id="Layer_1" data-name="Layer 1" xmlns="http://www.w3.org/2000/svg" viewBox="0 0 101.18 70.5">
<g id="Quiz">
<g id="Feather_Site_Redesign_Quiz_001-Copy-4" data-name="Feather Site Redesign Quiz 001-Copy-4">
<g id="Length_Buttons-Copy-4" data-name="Length Buttons-Copy-4">
<g id="icon_bed_king" data-name="icon bed king" stroke-width="1.5" >
<path id="Stroke-1" class="feathericons_stroke" d="M.75,69.67V40.61A8.69,8.69,0,0,1,9.41,32H91.77a8.68,8.68,0,0,1,8.66,8.66V69.67" transform="translate(0 0)"/>
<path id="Stroke-3" class="feathericons_stroke" d="M.75,53h99.68" transform="translate(0 0)"/>
<path id="Stroke-5" class="feathericons_stroke" d="M91.5,69.75h8.93" transform="translate(0 0)"/>
<path id="Stroke-8" class="feathericons_stroke" d="M.75,69.75H9.64" transform="translate(0 0)"/>
<path id="Stroke-11" class="feathericons_stroke" d="M48.59,32H23.4a2,2,0,0,1-2-2V19.52a2,2,0,0,1,2-2H48.59a2,2,0,0,1,2,2V30A2,2,0,0,1,48.59,32Z" transform="translate(0 0)"/>
<path id="Stroke-13" class="feathericons_stroke" d="M77.78,32H52.59a2,2,0,0,1-2-2V19.52a2,2,0,0,1,2-2H77.78a2,2,0,0,1,2,2V30A2,2,0,0,1,77.78,32Z" transform="translate(0 0)"/>
<path id="Stroke-15" class="feathericons_stroke" d="M67.45,8.87H92.89a1.73,1.73,0,0,1,1.73,1.73V32" transform="translate(0 0)"/>
<path id="Stroke-17" class="feathericons_stroke" d="M6.56,32V10.6A1.73,1.73,0,0,1,8.3,8.87H33.68" transform="translate(0 0)"/>
<path id="Stroke-19" class="feathericons_stroke" d="M9.64,69.75c1.4-2.91,7.85-4.93,11.27-4.93H80.27c3.39,0,9.81,2,11.23,4.84" transform="translate(0 0)"/>
<path id="Stroke-21" class="feathericons_stroke" d="M33.68,8.87C36.46,4.1,43,.75,50.57.75s14.1,3.34,16.88,8.11" transform="translate(0 0)"/>
<path id="Stroke-23" class="feathericons_stroke" d="M6.56,2.16V32" transform="translate(0 0)"/>
<path id="Stroke-25" class="feathericons_stroke" d="M94.62,2.16V32" transform="translate(0 0)"/>
</g></g></g></g></svg>