<svg width="26px" height="67px" id="Layer_1" data-name="Layer 1" xmlns="http://www.w3.org/2000/svg" viewBox="0 0 25.09 66.5">
<g id="Quiz">
<g id="Feather_Site_Redesign_Quiz_005" data-name="Feather Site Redesign Quiz 005">
<g id="icon_tv_remote" data-name="icon tv remote" stroke-width="1.5">
<path id="Stroke-1" class="feathericons_stroke" d="M17.34,65.75H7.75a7,7,0,0,1-7-7v-51a7,7,0,0,1,7-7h9.59a7,7,0,0,1,7,7v51A7,7,0,0,1,17.34,65.75Z" transform="translate(0 0)"/>
<path id="Stroke-3" class="feathericons_stroke" d="M18.3,18a5.76,5.76,0,1,1-5.75-5.76A5.74,5.74,0,0,1,18.3,18Z" transform="translate(0 0)"/>
<path id="Stroke-5" class="feathericons_stroke_2" d="M5.64,29.34H8.33" transform="translate(0 0)"/>
<path id="Stroke-7" class="feathericons_stroke_2" d="M11.2,29.34h2.69" transform="translate(0 0)"/>
<path id="Stroke-9" class="feathericons_stroke_2" d="M16.77,29.34h2.69" transform="translate(0 0)"/>
<path id="Stroke-11" class="feathericons_stroke_2" d="M5.64,33.31H8.33" transform="translate(0 0)"/>
<path id="Stroke-13" class="feathericons_stroke_2" d="M11.2,33.31h2.69" transform="translate(0 0)"/>
<path id="Stroke-15" class="feathericons_stroke_2" d="M16.77,33.31h2.69" transform="translate(0 0)"/>
<path id="Stroke-17" class="feathericons_stroke_2" d="M5.64,37.29H8.33" transform="translate(0 0)"/>
<path id="Stroke-19" class="feathericons_stroke_2" d="M11.2,37.29h2.69" transform="translate(0 0)"/>
<path id="Stroke-21" class="feathericons_stroke_2" d="M16.77,37.29h2.69" transform="translate(0 0)"/>
<path id="Fill-23" class="feathericons" d="M13.72,18a1.18,1.18,0,1,1-1.17-1.18A1.17,1.17,0,0,1,13.72,18" transform="translate(0 0)"/>
<path id="Stroke-25" class="feathericons_stroke_2" d="M5.64,6.86h4.57" transform="translate(0 0)"/>
<path id="Stroke-27" class="feathericons_stroke_2" d="M14.89,6.86h4.57" transform="translate(0 0)"/>
</g></g></g></svg>