<svg width="112px" height="32px" id="Layer_1" data-name="Layer 1" xmlns="http://www.w3.org/2000/svg" viewBox="0 0 111.18 31.5">
<g id="Quiz">
<g id="Feather_Site_Redesign_Quiz_005-Copy" data-name="Feather Site Redesign Quiz 005-Copy">
<g id="icon_airplane" data-name="icon airplane">
<path id="Stroke-1" class="feathericons_stroke" stroke-width="1.5" d="M80.52,29.73l1.7,0h2.7c14.69,0,25.51-2.62,25.51-7.17,0-1.19-2.05-3.21-3.86-4-.92-5.2-10.4-8.47-24.35-8.47-14.69,0-58.85,3.62-58.85,9.31,0,3.08,13,5.85,27.27,7.74" transform="translate(0 0)"/>
<path id="Stroke-3" class="feathericons_stroke" stroke-width="1.5" d="M23.37,19.46,16.77.75s9.8-.19,13.45,2.74C35,7.35,36,14.25,43.62,13.16" transform="translate(0 0)"/>
<path id="Stroke-5" class="feathericons_stroke" stroke-width="1.5" d="M81.93,27.74c0,3.44-7,3-15.68,3s-15.69-1.34-15.69-3,7-3.95,15.69-3.95S81.93,24.75,81.93,27.74Z" transform="translate(0 0)"/>
<path id="Fill-7" class="feathericons" d="M95.41,19.56A1.07,1.07,0,1,1,96.8,19a1.07,1.07,0,0,1-1.39.6" transform="translate(0 0)"/>
<path id="Fill-9" class="feathericons" d="M90.07,19.56a1.07,1.07,0,1,1,1.39-.6,1.07,1.07,0,0,1-1.39.6" transform="translate(0 0)"/>
<path id="Fill-11" class="feathericons" d="M84.73,19.56a1.07,1.07,0,1,1,1.39-.6,1.07,1.07,0,0,1-1.39.6" transform="translate(0 0)"/>
<path id="Stroke-13" class="feathericons_stroke" stroke-width="1.5" d="M106.57,18.56h-6" transform="translate(0 0)"/>
<path id="Stroke-15" class="feathericons_stroke" stroke-width="1.5" d="M.75,6.36H22.86" transform="translate(0 0)"/>
<path id="Stroke-17" class="feathericons_stroke" stroke-width="1.5" d="M12,11.89h19" transform="translate(0 0)"/>
</g>
</g>
</g>
</svg>