<svg width="47px" height="47px" id="Layer_1" data-name="Layer 1" xmlns="http://www.w3.org/2000/svg" viewBox="0 0 46.5 46.5">
<g id="Quiz">
<g id="Desktop-HD-Copy-9">
<g id="Length_Buttons-Copy-2" data-name="Length Buttons-Copy-2">
<g id="icon_clock" data-name="icon clock" stroke-width="1.5">
<path id="Stroke-1" class="feathericons_stroke" d="M45.75,23.25A22.5,22.5,0,1,1,23.25.75,22.5,22.5,0,0,1,45.75,23.25Z" transform="translate(0 0)"/>
<path id="Stroke-3" class="feathericons_stroke" d="M38.24,23.25a15,15,0,1,1-15-15A15,15,0,0,1,38.24,23.25Z" transform="translate(0 0)"/>
<path id="Stroke-5" class="feathericons_stroke" d="M23.25,9.45V12" transform="translate(0 0)"/>
<path id="Stroke-7" class="feathericons_stroke" d="M23.25,34.55V37.8" transform="translate(0 0)"/>
<path id="Stroke-9" class="feathericons_stroke" d="M37.8,23.25H34.55" transform="translate(0 0)"/>
<path id="Stroke-11" class="feathericons_stroke" d="M12,23.25H8.7" transform="translate(0 0)"/>
<polyline id="Stroke-13" class="feathericons_stroke" points="23.25 16.59 23.25 23.25 30.11 29.5"/>
</g></g></g></g></svg>