<svg width="77px" height="62px" id="Layer_1" data-name="Layer 1" xmlns="http://www.w3.org/2000/svg" viewBox="0 0 76.84 61.5">
<g id="Quiz">
<g id="Feather_Site_Redesign_Quiz_005-Copy" data-name="Feather Site Redesign Quiz 005-Copy">
<g id="icon_new_home" data-name="icon new home">
<path id="Stroke-1" class="feathericons_stroke" stroke-width="1.5" d="M60.5,36.07V60a.8.8,0,0,1-.8.8H19.9a.8.8,0,0,1-.8-.8V36.07" transform="translate(0 0)"/>
<path id="Stroke-3" class="feathericons_stroke_2" stroke-width="1.5" d="M16.1,39,39.33,15.81a.66.66,0,0,1,.94,0L63.5,39" transform="translate(0 0)"/>
<path id="Stroke-5" class="feathericons_stroke_2" stroke-width="1.5" d="M44.44,60.75H35.16a1,1,0,0,1-1-1V45.61a1,1,0,0,1,1-1h9.28a1,1,0,0,1,1,1V59.75A1,1,0,0,1,44.44,60.75Z" transform="translate(0 0)"/>
<path id="Stroke-7" class="feathericons_stroke_2" stroke-width="1.5" d="M55.33,30.37v-11a.76.76,0,0,0-.75-.76H49a.76.76,0,0,0-.76.76V23.6" transform="translate(0 0)"/>
<path id="Stroke-9" class="feathericons_stroke_2" stroke-width="1.5" d="M41.65,36.07H38a1,1,0,0,1-1-1v-3.7a1,1,0,0,1,1-1h3.7a1,1,0,0,1,1,1v3.7A1,1,0,0,1,41.65,36.07Z" transform="translate(0 0)"/>
<path id="Stroke-11" class="feathericons_stroke_2" stroke-width="1.5" d="M32.14,7.27A7,7,0,0,1,25.62.76h0A7,7,0,0,1,19.1,7.27a7,7,0,0,1,6.52,6.52,7,7,0,0,1,6.52-6.52Z" transform="translate(0 0)"/>
<path id="Stroke-13" class="feathericons_stroke_2" stroke-width="1.5" d="M11,45.63A5.53,5.53,0,0,1,5.89,40.5h0A5.53,5.53,0,0,1,.75,45.63a5.53,5.53,0,0,1,5.14,5.14A5.53,5.53,0,0,1,11,45.63Z" transform="translate(0 0)"/>
<path id="Stroke-15" class="feathericons_stroke_2" stroke-width="1.5" d="M76.09,33.17a4.87,4.87,0,0,1-4.57-4.45h0a4.85,4.85,0,0,1-4.45,4.56,4.86,4.86,0,0,1,4.57,4.46A4.85,4.85,0,0,1,76.09,33.17Z" transform="translate(0 0)"/>
</g></g></g></svg>