<svg width="37px" height="49px" id="Layer_1" data-name="Layer 1" xmlns="http://www.w3.org/2000/svg" viewBox="0 0 36.5 48.36">
<g id="Quiz"><g id="Desktop-HD-Copy-9">
<g id="Length_Buttons-Copy-2" data-name="Length Buttons-Copy-2">
<g id="icon_hourglass" data-name="icon hourglass" stroke-width="1.5">
<path id="Stroke-1" class="feathericons_stroke" d="M32.48,47.11c0-11.48-5-21-11.65-23,6.63-2,11.65-11.54,11.65-23" transform="translate(0 0)"/>
<path id="Stroke-3" class="feathericons_stroke" d="M4,1.07c0,11.48,5,21,11.65,23C9,26.09,4,35.63,4,47.11" transform="translate(0 0)"/>
<path id="Stroke-5" class="feathericons_stroke" d="M.75.75h35" transform="translate(0 0)"/>
<path id="Stroke-7" class="feathericons_stroke" d="M.75,47.61h35" transform="translate(0 0)"/>
<path id="Stroke-10" class="feathericons_stroke" d="M27.31,12.21c-2,4.65-5.24,8.69-9.14,8.69s-7.22-4-9.08-8.54" transform="translate(0 0)"/>
<path id="Stroke-12" class="feathericons_stroke" d="M9,12.21H27.31" transform="translate(0 0)"/>
<path id="Stroke-14" class="feathericons_stroke" d="M28.49,37.78a29.31,29.31,0,0,1,1.08,7.89c0,.65,0,1.3-.06,1.94" transform="translate(0 0)"/>
<path id="Stroke-16" class="feathericons_stroke" d="M7,47.6c0-.63-.06-1.28-.06-1.93A29.31,29.31,0,0,1,8,37.78" transform="translate(0 0)"/>
<polyline id="Stroke-18" class="feathericons_stroke" points="8.01 37.78 18.25 33.47 28.49 37.78"/>
<path id="Stroke-20" class="feathericons_stroke" d="M18.18,20.9V33.47" transform="translate(0 0)"/>
</g></g></g></g></svg>