<svg width="42px" height="35px" id="Layer_1" data-name="Layer 1" xmlns="http://www.w3.org/2000/svg" viewBox="0 0 41.5 34.27">
<g id="Quiz">
<g id="Desktop-HD-Copy-10">
<g id="Length_Buttons-Copy-2" data-name="Length Buttons-Copy-2">
<g id="icon_fishbowel" data-name="icon fishbowel" stroke-width="1.5">
<path id="Stroke-1" class="feathericons_stroke" d="M5.36.75a20,20,0,1,0,30.78,0Z" transform="translate(0)"/>
<path id="Stroke-3" class="feathericons_stroke_2" d="M2.38,6.75H39.63" transform="translate(0)"/>
<path id="Stroke-5" class="feathericons_stroke" d="M6.28,27.32a6.11,6.11,0,0,1,4.79-2.41c3.48-.28,16.76,5.59,24.75,1.75" transform="translate(0)"/>
<path id="Stroke-7" class="feathericons_stroke" d="M26.56,17.48s-3,1.57,0,3.51c.86.56,2.57,2.14,0,3.43-.46.23-1.73,1.6.05,3.2" transform="translate(0)"/>
<path id="Stroke-9" class="feathericons_stroke" d="M31,17.48S28,19.05,31,21c.86.56,2.57,2.14,0,3.43-.45.23-1.73,1.6.06,3.2" transform="translate(0)"/>
<path id="Fill-11" class="feathericons" d="M8.42,11.64a1.07,1.07,0,1,1-1.07-1.06,1.07,1.07,0,0,1,1.07,1.06" transform="translate(0)"/>
<path id="Fill-13" class="feathericons" d="M12.88,13.87a1.07,1.07,0,1,1-1.07-1.06,1.07,1.07,0,0,1,1.07,1.06" transform="translate(0)"/>
<path id="Fill-15" class="feathericons" d="M10.65,20.56a1.07,1.07,0,1,1-1.07-1.07,1.07,1.07,0,0,1,1.07,1.07" transform="translate(0)"/>
</g></g></g></g></svg>