<svg width="52px" height="51px" id="Layer_1" data-name="Layer 1" xmlns="http://www.w3.org/2000/svg" viewBox="0 0 51.5 50.24">
<g id="Quiz">
<g id="Feather_Site_Redesign_Quiz_005" data-name="Feather Site Redesign Quiz 005">
<g id="icon_moon_and_stars" data-name="icon moon and stars" stroke-width="1.5">
<path id="Stroke-1" class="feathericons_stroke" d="M14.6,25.15a25.55,25.55,0,0,1,1.58-16.1A20.54,20.54,0,1,0,34.5,44.67,25.69,25.69,0,0,1,14.6,25.15Z" transform="translate(0 0)"/>
<polygon id="Stroke-3" class="feathericons_stroke" points="32.8 0.75 34.73 4.66 39.04 5.28 35.92 8.32 36.66 12.62 32.8 10.59 28.95 12.62 29.68 8.32 26.57 5.28 30.88 4.66 32.8 0.75"/>
<polygon id="Stroke-5" class="feathericons_stroke" points="32.35 21.96 33.75 24.8 36.88 25.26 34.62 27.47 35.15 30.59 32.35 29.12 29.55 30.59 30.08 27.47 27.81 25.26 30.95 24.8 32.35 21.96"/>
<polygon id="Stroke-7" class="feathericons_stroke" points="47.08 16.35 48.22 18.65 50.75 19.02 48.91 20.8 49.35 23.33 47.08 22.14 44.81 23.33 45.25 20.8 43.41 19.02 45.95 18.65 47.08 16.35"/>
</g></g></g></svg>