<svg width="91px" height="54px" id="Layer_1" data-name="Layer 1" xmlns="http://www.w3.org/2000/svg" viewBox="0 0 90.89 53.5">
<g id="Quiz"><g id="Feather_Site_Redesign_Quiz_001-Copy-4" data-name="Feather Site Redesign Quiz 001-Copy-4">
<g id="Length_Buttons-Copy-3" data-name="Length Buttons-Copy-3">
<g id="icon_bed_queen" data-name="icon bed queen" stroke-width="1.5">
<path id="Stroke-1" class="feathericons_stroke" d="M.75,52.67V28.84a8.37,8.37,0,0,1,8.34-8.35H81.8a8.38,8.38,0,0,1,8.34,8.35V52.67" transform="translate(0 0)"/>
<path id="Stroke-3" class="feathericons_stroke" d="M.75,36.62H90.14" transform="translate(0 0)"/>
<path id="Stroke-5" class="feathericons_stroke" d="M.75,52.75H90.14" transform="translate(0 0)"/>
<path id="Stroke-8" class="feathericons_stroke" d="M43.44,20.49H19.32a2,2,0,0,1-2-2V8.59a2,2,0,0,1,2-2H43.44a2,2,0,0,1,2,2v9.9A2,2,0,0,1,43.44,20.49Z" transform="translate(0 0)"/>
<path id="Stroke-10" class="feathericons_stroke" d="M71.57,20.49H47.44a2,2,0,0,1-2-2V8.59a2,2,0,0,1,2-2H71.57a2,2,0,0,1,2,2v9.9A2,2,0,0,1,71.57,20.49Z" transform="translate(0 0)"/>
<path id="Stroke-12" class="feathericons_stroke" d="M6.35,20.49V2.42A1.67,1.67,0,0,1,8,.75H82.87a1.67,1.67,0,0,1,1.66,1.67V20.49" transform="translate(0 0)"/>
</g></g></g></g></svg>