<svg width="60px" height="52px" id="Layer_1" data-name="Layer 1" xmlns="http://www.w3.org/2000/svg" viewBox="0 0 59.98 51.5">
<g id="Quiz"><g id="Feather_Site_Redesign_Quiz_001-Copy-3" data-name="Feather Site Redesign Quiz 001-Copy-3">
<g id="Length_Buttons-Copy-2" data-name="Length Buttons-Copy-2">
<g id="icon_pillows" data-name="icon pillows">
<path id="Stroke-1" class="feathericons_stroke" stroke-width="1.5" d="M57.73,41.21c1.7-3,1.15-6.31.8-10.14s-.44-7.27-2.68-9.88a3,3,0,1,0-4.59-3.65c-4.24-2.3-10-2.09-17.44-1.4-7.06.64-12.52,1.28-16.26,4a3,3,0,0,0-4.13,4.32c-2,3.1-1.59,6.7-1.21,10.81s.6,7.68,3.11,10.36a3,3,0,0,0,2.77,4.64,2.94,2.94,0,0,0,2.06-1.12c4.19,2.05,9.69,1.71,16.78,1.06,7.49-.69,13.17-1.53,16.93-4.58a3,3,0,0,0,5.35-2.13A3.05,3.05,0,0,0,57.73,41.21Z" transform="translate(0 0)"/>
<path id="Stroke-3" class="feathericons_stroke" stroke-width="1.5" d="M48.24,16.37l-.67-1.89c-1.27-3.65-2.19-6.95-5-8.94A3,3,0,0,0,39.17.92a3,3,0,0,0-1.93,2.19C32.56,1.91,27.05,3.5,20,6,13.28,8.31,8.14,10.26,5.18,13.84a3,3,0,0,0-3,5.2C1,22.53,2.3,25.92,3.66,29.81s2.45,7.31,5.53,9.31a2.92,2.92,0,0,0,0,2A3,3,0,0,0,13,43a2.54,2.54,0,0,0,.5-.23" transform="translate(0 0)"/>
<path id="Stroke-5" class="feathericons_stroke_2" stroke-width="1.5" d="M16.66,28.65a25.9,25.9,0,0,1,1.17,12.4" transform="translate(0 0)"/>
</g></g></g></g></svg>