<svg width="75px" height="49px" id="Layer_1" data-name="Layer 1" xmlns="http://www.w3.org/2000/svg" viewBox="0 0 74.37 48.71">
<g id="Quiz"><g id="Feather_Site_Redesign_Quiz_005-Copy-3" data-name="Feather Site Redesign Quiz 005-Copy-3">
<g id="icon_three_dollar_signs" data-name="icon three dollar signs">
<polygon id="Path-2-Copy-4" class="feathericons" points="8.69 7.7 10.49 6.7 10.49 41.7 8.69 40.7 8.69 7.7"/>
<polygon id="Path-2-Copy-3" class="feathericons" points="35.69 7.7 37.49 6.7 37.49 41.7 35.69 40.7 35.69 7.7"/>
<polygon id="Path-2-Copy-5" class="feathericons" points="63.69 7.7 65.49 6.7 65.49 41.7 63.69 40.7 63.69 7.7"/>
<path class="feathericons" d="M8.75,1.22V6.85a9.47,9.47,0,0,0-8.41,10A9.54,9.54,0,0,0,9.2,25.5a.75.75,0,0,0,.21,0,10.65,10.65,0,0,0,1.13,0,7.57,7.57,0,0,1,.06,15.13A7.79,7.79,0,0,1,2.77,35.8.91.91,0,0,0,2,35.21a.93.93,0,0,0-.88.33.89.89,0,0,0-.14.91,9.58,9.58,0,0,0,7.73,5.93v5.7a.92.92,0,0,0,.47.8.93.93,0,0,0,.94,0,.9.9,0,0,0,.47-.8v-5.6h.1a9.4,9.4,0,0,0,.08-18.77.91.91,0,0,0-.23,0,8.22,8.22,0,0,0-1.11,0,7.68,7.68,0,0,1-7.26-7,7.64,7.64,0,0,1,7.2-8.08,7.7,7.7,0,0,1,7.82,4.81A.93.93,0,0,0,18,14a1,1,0,0,0,.89-.34.9.9,0,0,0,.13-.92,9.55,9.55,0,0,0-8.35-6V1.22a.94.94,0,0,0-1.88,0Z" transform="translate(-0.31 -0.3)"/>
<path class="feathericons" d="M35.75,1.22V6.85a9.47,9.47,0,0,0-8.41,10A9.54,9.54,0,0,0,36.2,25.5a.75.75,0,0,0,.21,0,10.65,10.65,0,0,0,1.13,0,7.57,7.57,0,0,1,.06,15.13,7.79,7.79,0,0,1-7.83-4.85.91.91,0,0,0-.73-.59.93.93,0,0,0-.88.33.89.89,0,0,0-.14.91,9.58,9.58,0,0,0,7.73,5.93v5.7a.92.92,0,0,0,.47.8.93.93,0,0,0,.94,0,.9.9,0,0,0,.47-.8v-5.6h.1a9.4,9.4,0,0,0,.08-18.77.91.91,0,0,0-.23,0,8.22,8.22,0,0,0-1.11,0,7.68,7.68,0,0,1-7.26-7,7.81,7.81,0,0,1,15-3.27A.93.93,0,0,0,45,14a1,1,0,0,0,.89-.34.9.9,0,0,0,.13-.92,9.55,9.55,0,0,0-8.35-6V1.22a.94.94,0,0,0-1.88,0Z" transform="translate(-0.31 -0.3)"/>
<path class="feathericons" d="M63.75,1.22V6.85a9.47,9.47,0,0,0-8.41,10A9.54,9.54,0,0,0,64.2,25.5a.75.75,0,0,0,.21,0,10.65,10.65,0,0,0,1.13,0,7.57,7.57,0,0,1,.06,15.13,7.79,7.79,0,0,1-7.83-4.85.91.91,0,0,0-.73-.59.93.93,0,0,0-.88.33.89.89,0,0,0-.14.91,9.58,9.58,0,0,0,7.73,5.93v5.7a.92.92,0,0,0,.47.8.93.93,0,0,0,.94,0,.9.9,0,0,0,.47-.8v-5.6h.1a9.4,9.4,0,0,0,.08-18.77.91.91,0,0,0-.23,0,8.22,8.22,0,0,0-1.11,0,7.68,7.68,0,0,1-7.26-7,7.81,7.81,0,0,1,15-3.27A.93.93,0,0,0,73,14a1,1,0,0,0,.89-.34.9.9,0,0,0,.13-.92,9.55,9.55,0,0,0-8.35-6V1.22a.94.94,0,0,0-1.88,0Z" transform="translate(-0.31 -0.3)"/>
</g></g></g></svg>