<svg width="55px" height="52px" id="Layer_1" data-name="Layer 1" xmlns="http://www.w3.org/2000/svg" viewBox="0 0 54.64 51.49">
<g id="Quiz">
<g id="Feather_Site_Redesign_Quiz_001-Copy-3" data-name="Feather Site Redesign Quiz 001-Copy-3">
<g id="Length_Buttons-Copy-4" data-name="Length Buttons-Copy-4">
<g id="icon_paper_and_pen" data-name="icon paper and pen" stroke-width="1.5">
<path id="Stroke-1" class="feathericons_stroke" d="M33.65,48.33,5,50.74a1,1,0,0,1-1.08-.92L.75,12.16a1,1,0,0,1,.92-1.08l28.65-2.4a1,1,0,0,1,1.08.91l3.16,37.66A1,1,0,0,1,33.65,48.33Z" transform="translate(0 0)"/>
<path id="Stroke-3" class="feathericons_stroke" d="M11.8,10.25l.91-8.88a.69.69,0,0,1,.76-.62l29.22,3a.69.69,0,0,1,.61.76L39.35,42.74a.68.68,0,0,1-.75.61l-4.4-.45" transform="translate(0 0)"/>
<path id="Stroke-5" class="feathericons_stroke" d="M6.83,17.32l19.43-1.64" transform="translate(0 0)"/>
<path id="Stroke-7" class="feathericons_stroke" d="M16.12,21.6l10.56-.89" transform="translate(0 0)"/>
<polyline id="Stroke-9" class="feathericons_stroke" points="7.26 22.35 11.46 21.99 12.89 21.87"/>
<polyline id="Stroke-11" class="feathericons_stroke" points="7.68 27.38 15.88 26.69 27.11 25.75"/>
<path id="Stroke-13" class="feathericons_stroke" d="M21.71,31.27l5.82-.49" transform="translate(0 0)"/>
<path id="Stroke-15" class="feathericons_stroke" d="M8.1,32.41l10-.84" transform="translate(0 0)"/>
<path id="Stroke-17" class="feathericons_stroke" d="M8.53,37.45,23.7,36.17" transform="translate(0 0)"/>
<path id="Stroke-19" class="feathericons_stroke" d="M50.36,47.69a1.27,1.27,0,0,1-1.26-1.26V22a1.26,1.26,0,0,1,2.52,0V46.43A1.27,1.27,0,0,1,50.36,47.69Z" transform="translate(0 0)"/>
<path id="Stroke-21" class="feathericons_stroke" d="M49.1,25.3h2.52" transform="translate(0 0)"/>
<path id="Stroke-23" class="feathericons_stroke" d="M52.37,23.05h.76a.77.77,0,0,1,.76.76v7.9" transform="translate(0 0)"/>
</g></g></g></g></svg>