<svg width="59px" height="47px" id="Layer_1" data-name="Layer 1" xmlns="http://www.w3.org/2000/svg" viewBox="0 0 58.5 46.5">
<g id="Quiz"><g id="Feather_Site_Redesign_Quiz_001-Copy-3" data-name="Feather Site Redesign Quiz 001-Copy-3">
<g id="Length_Buttons-Copy-2" data-name="Length Buttons-Copy-2"><g id="icon_flatscreen_tv" data-name="icon flatscreen tv">
<path id="Stroke-1" class="feathericons_stroke" stroke-width="1.5" d="M57,40H2a1,1,0,0,1-1-1V2A1,1,0,0,1,2,1H57a1,1,0,0,1,1,1V39A1,1,0,0,1,57,40Z" transform="translate(-0.25 -0.25)"/>
<path id="Stroke-3" class="feathericons_stroke" stroke-width="1.5" d="M15,46H43" transform="translate(-0.25 -0.25)"/>
<path id="Stroke-6" class="feathericons_stroke" stroke-width="1.5" d="M19,40v5" transform="translate(-0.25 -0.25)"/>
<path id="Stroke-8" class="feathericons_stroke" stroke-width="1.5" d="M40,40v5" transform="translate(-0.25 -0.25)"/>
<path id="Stroke-10" class="feathericons_stroke" stroke-width="1.5" d="M1,34H58" transform="translate(-0.25 -0.25)"/>
<path id="Fill-12" class="feathericons" d="M48.75,36.34a1,1,0,1,1-1.41-.09,1,1,0,0,1,1.41.09" transform="translate(-0.25 -0.25)"/>
<path id="Fill-14" class="feathericons" d="M52.75,36.34a1,1,0,1,1-1.41-.09,1,1,0,0,1,1.41.09" transform="translate(-0.25 -0.25)"/>
<path id="Stroke-16" class="feathericons_stroke" stroke-width="1.5" d="M17,18,27,8" transform="translate(-0.25 -0.25)"/>
<path id="Stroke-18" class="feathericons_stroke" stroke-width="1.5" d="M32,20,42,10" transform="translate(-0.25 -0.25)"/>
<path id="Stroke-20" class="feathericons_stroke" stroke-width="1.5" d="M17,25,34,8" transform="translate(-0.25 -0.25)"/>
</g></g></g></g></svg>