<svg width="72px" height="43px" id="Layer_1" data-name="Layer 1" xmlns="http://www.w3.org/2000/svg" viewBox="0 0 71.5 42.47">
<g id="Quiz"><g id="Desktop-HD-Copy-10">
<g id="Length_Buttons-Copy-2" data-name="Length Buttons-Copy-2">
<g id="icon_aquarium" data-name="icon aquarium">
<path id="Stroke-1" class="feathericons_stroke" stroke-width="1.5" d="M69.72,41.72h-68a1,1,0,0,1-1-1v-39a1,1,0,0,1,1-1h68a1,1,0,0,1,1,1v39A1,1,0,0,1,69.72,41.72Z" transform="translate(0 0)"/>
<path id="Stroke-3" class="feathericons_stroke" stroke-width="1.5" d="M69.72,41.72h-68a1,1,0,0,1-1-1v-39a1,1,0,0,1,1-1h68a1,1,0,0,1,1,1v39A1,1,0,0,1,69.72,41.72Z" transform="translate(0 0)"/>
<path id="Stroke-5" class="feathericons_stroke_2" stroke-width="1.5" d="M.83,6.54H70.46" transform="translate(0 0)"/>
<path id="Stroke-7" class="feathericons_stroke_2" stroke-width="1.5" d="M.75,35s2.11-1.49,7.81-1.5c11.92,0,24.88,3,35,3,14.51,0,23.32-3.1,27.21-3" transform="translate(0 0)"/>
<path id="Stroke-9" class="feathericons_stroke_2" stroke-width="1.5" d="M52.87,35.26a29.54,29.54,0,0,1-1-12.48" transform="translate(0 0)"/>
<path id="Stroke-11" class="feathericons_stroke_2" stroke-width="1.5" d="M51.57,26.61s-3.49-1.94-4.4-1.56" transform="translate(0 0)"/>
<path id="Stroke-13" class="feathericons_stroke_2" stroke-width="1.5" d="M51.57,29.46a6.74,6.74,0,0,0-4.4-1.17" transform="translate(0 0)"/>
<path id="Stroke-15" class="feathericons_stroke_2" stroke-width="1.5" d="M51.57,32.21A4.91,4.91,0,0,0,48,31.44" transform="translate(0 0)"/>
<path id="Stroke-17" class="feathericons_stroke_2" stroke-width="1.5" d="M51.57,25.81s.78-1.31,3.5-.81" transform="translate(0 0)"/>
<path id="Stroke-19" class="feathericons_stroke_2" stroke-width="1.5" d="M51.54,28.23a6.37,6.37,0,0,1,3.92-.4" transform="translate(0 0)"/>
<path id="Stroke-21" class="feathericons_stroke_2" stroke-width="1.5" d="M51.85,30.65a8.88,8.88,0,0,1,4.1-.38" transform="translate(0 0)"/>
<path id="Stroke-23" class="feathericons_stroke_2" stroke-width="1.5" d="M52.39,33.49A6.58,6.58,0,0,1,56,33.07" transform="translate(0 0)"/>
<path id="Stroke-25" class="feathericons_stroke_2" stroke-width="1.5" d="M51.57,23.86S49.73,21.72,48,22.2" transform="translate(0 0)"/>
<path id="Fill-27" class="feathericons" d="M9.81,16a1,1,0,1,1-1-1,1,1,0,0,1,1,1" transform="translate(0 0)"/>
<path id="Fill-29" class="feathericons" d="M13.1,19.58a1,1,0,0,1,.09-1.46,1,1,0,0,1,1.47.09,1,1,0,0,1-1.56,1.37" transform="translate(0 0)"/>
<path id="Fill-31" class="feathericons" d="M13.53,26.17a1,1,0,1,1-1-1,1,1,0,0,1,1,1" transform="translate(0 0)"/>
<path id="Fill-33" class="feathericons" d="M15.86,12.18a1,1,0,1,1-1-1,1,1,0,0,1,1,1" transform="translate(0 0)"/>
</g></g></g></g></svg>