<svg width="37px" height="40px" id="Layer_1" data-name="Layer 1" xmlns="http://www.w3.org/2000/svg" viewBox="0 0 36.5 39.78">
<g id="Quiz">
<g id="Desktop-HD-Copy-9">
<g id="Length_Buttons-Copy-2" data-name="Length Buttons-Copy-2">
<g id="icon_stopwatch" data-name="icon stopwatch" stroke-width="1.5">
<path id="Stroke-1" class="feathericons_stroke" d="M35.75,21.53A17.5,17.5,0,1,1,18.25,4,17.5,17.5,0,0,1,35.75,21.53Z" transform="translate(0 0)"/>
<path id="Stroke-3" class="feathericons_stroke" d="M20.6,4V1.25a.5.5,0,0,0-.5-.5H16.4a.5.5,0,0,0-.5.5V4" transform="translate(0 0)"/>
<path id="Stroke-5" class="feathericons_stroke" d="M13.38.75h9.74" transform="translate(0 0)"/>
<path id="Stroke-7" class="feathericons_stroke" d="M32.65,10.6l1.86-2.07a.49.49,0,0,0,0-.7L31.73,5.35a.5.5,0,0,0-.7,0L29.17,7.45" transform="translate(0 0)"/>
<polyline id="Stroke-9" class="feathericons_stroke" points="18.25 14.04 18.25 21.53 27.26 12.09"/>
</g></g></g></g></svg>