<svg width="19px" height="49px" id="Layer_1" data-name="Layer 1" xmlns="http://www.w3.org/2000/svg" viewBox="0 0 19 49">
<g id="Quiz">
<g id="Feather_Site_Redesign_Quiz_005-Copy-3" data-name="Feather Site Redesign Quiz 005-Copy-3">
<g id="icon_one_dollar_sign" data-name="icon one dollar sign">
<path class="feathericons" d="M8.28.93V6.59a9.44,9.44,0,0,0,.43,18.77.74.74,0,0,0,.21,0,6.86,6.86,0,0,0,1.11,0A7.63,7.63,0,1,1,2.41,35.71a.92.92,0,0,0-1.58-.26.93.93,0,0,0-.14.92,9.46,9.46,0,0,0,7.59,6v5.73a.9.9,0,0,0,.45.8.93.93,0,0,0,1.39-.8V42.43h.09a9.46,9.46,0,0,0,.09-18.87,1,1,0,0,0-.24,0,9.73,9.73,0,0,0-1.08,0A7.6,7.6,0,0,1,8.92,8.37a7.51,7.51,0,0,1,7.67,4.83.9.9,0,0,0,.71.61.92.92,0,0,0,1-1.26,9.39,9.39,0,0,0-8.19-6V.93A.92.92,0,0,0,9.18,0,.92.92,0,0,0,8.28.93Z" transform="translate(0 0)"/>
<polygon id="Path-2" class="feathericons" points="8.1 8 9.9 7 9.9 42 8.1 41 8.1 8"/>
</g></g></g></svg>