<svg width="70px" height="47px" id="Layer_1" data-name="Layer 1" xmlns="http://www.w3.org/2000/svg" viewBox="0 0 69.89 46.5">
<g id="Quiz">
<g id="Feather_Site_Redesign_Quiz_001-Copy-3" data-name="Feather Site Redesign Quiz 001-Copy-3">
<g id="Length_Buttons-Copy-3" data-name="Length Buttons-Copy-3">
<g id="icon_dinnerware" data-name="icon dinnerware" stroke-width="1.5">
<path id="Stroke-1" class="feathericons_stroke" d="M58.22,23.25A22.5,22.5,0,1,1,35.72.75,22.5,22.5,0,0,1,58.22,23.25Z" transform="translate(0 0)"/>
<path id="Stroke-3" class="feathericons_stroke" d="M46.24,23.25A10.52,10.52,0,1,1,35.72,12.74,10.51,10.51,0,0,1,46.24,23.25Z" transform="translate(0 0)"/>
<path id="Stroke-5" class="feathericons_stroke_2" d="M8.55,5.33v5.3a3.9,3.9,0,0,1-7.8,0V5.33" transform="translate(0 0)"/>
<path id="Stroke-7" class="feathericons_stroke_2" d="M4.65,5.33V43" transform="translate(0 0)"/>
<path id="Stroke-9" class="feathericons_stroke_2" d="M65.29,5.33V43" transform="translate(0 0)"/>
<path id="Stroke-11" class="feathericons_stroke_2" d="M65.24,5.33a3.92,3.92,0,0,1,3.9,3.9v16" transform="translate(0 0)"/>
<path id="Stroke-13" class="feathericons_stroke_2" d="M69.14,25.22H65.29" transform="translate(0 0)"/>
</g></g></g></g></svg>