<svg width="101px" height="62px" id="Layer_1" data-name="Layer 1" xmlns="http://www.w3.org/2000/svg" viewBox="0 0 100.1 61.5">
<g id="Quiz">
<g id="Desktop-HD-Copy-10">
<g id="Length_Buttons-Copy-3" data-name="Length Buttons-Copy-3">
<g id="icon_ocean" data-name="icon ocean">
<g id="Group-6" stroke-width="1.5">
<path id="Stroke-1" class="feathericons_stroke" d="M.75,35.5h98.6" transform="translate(0 0)"/>
<g id="Group-5" stroke-width="1.5">
<path id="Stroke-3" class="feathericons_stroke" d="M29.37,60.75H71.26" transform="translate(0 0)"/>
</g></g><path id="Stroke-7" class="feathericons_stroke" d="M49.23,43.91H90.17" transform="translate(0 0)"/><path id="Stroke-8" class="feathericons_stroke" d="M10.21,43.91h32.4" transform="translate(0 0)"/><path id="Stroke-9" class="feathericons_stroke" d="M70,52.33H80.71" transform="translate(0 0)"/><path id="Stroke-10" class="feathericons_stroke" d="M39.07,52.33H63.42" transform="translate(0 0)"/><path id="Stroke-11" class="feathericons_stroke" d="M19.66,52.33h13" transform="translate(0 0)"/><g id="Group-22"><path id="Stroke-12" class="feathericons_stroke" d="M84.14,5.67S88.33,5,90,8.16" transform="translate(0 0)"/><path id="Stroke-14" class="feathericons_stroke" d="M95.92,5.67S91.73,5,90,8.16" transform="translate(0 0)"/><path id="Stroke-16" class="feathericons_stroke" d="M67.12,16.07s4.19-.65,5.89,2.49" transform="translate(0 0)"/><path id="Stroke-18" class="feathericons_stroke" d="M78.9,16.07s-4.19-.65-5.89,2.49" transform="translate(0 0)"/><path id="Stroke-20" class="feathericons_stroke" d="M29.92,8.16A7.41,7.41,0,1,1,22.52.75,7.4,7.4,0,0,1,29.92,8.16Z" transform="translate(0 0)"/></g></g></g></g></g></svg>