<svg width="62px" height="59px" id="Layer_1" data-name="Layer 1" xmlns="http://www.w3.org/2000/svg" viewBox="0 0 61.48 58.05">
<g id="Quiz">
<g id="Desktop-HD-Copy-7">
<g id="Length_Buttons-Copy-2" data-name="Length Buttons-Copy-2">
<g id="icon_playing_cards" data-name="icon playing cards" stroke-width="1.5">
<path id="Stroke-1" class="feathericons_stroke" d="M42.14,46.79l.39,1.58a1,1,0,0,1-.74,1.25L11.33,57.26a1,1,0,0,1-1.24-.74L.78,19.45a1,1,0,0,1,.74-1.25L14.39,15" transform="translate(0 0)"/>
<path id="Fill-3" class="feathericons" d="M9.62,21.09a6.33,6.33,0,0,0-1,4.76l-1.13.28a6.5,6.5,0,0,1,.88-4.69l-2.66.67-.23-.95,3.91-1Z" transform="translate(0 0)"/>
<path id="Stroke-5" class="feathericons_stroke" d="M48.44,45.1a1,1,0,0,1-1,1L16,46.77a1,1,0,0,1-1-1L14.24,7.54a1,1,0,0,1,1-1L27,6.27" transform="translate(0 0)"/>
<path id="Fill-7" class="feathericons" d="M19.69,12.41l1.36-1.22-2.32.05,0-1,3.76-.07v.91l-1.35,1.17a1.59,1.59,0,0,1,1.57,1.59,1.85,1.85,0,0,1-2,1.8A1.91,1.91,0,0,1,18.61,14l1.09-.24a.93.93,0,0,0,1,.92.81.81,0,0,0,.88-.82.77.77,0,0,0-.88-.77,1.1,1.1,0,0,0-.48.09Z" transform="translate(0 0)"/>
<path id="Stroke-9" class="feathericons_stroke" d="M54.46,44.89,23.3,40.67a1,1,0,0,1-.86-1.13L27.58,1.62A1,1,0,0,1,28.7.76L59.87,5a1,1,0,0,1,.85,1.12L55.59,44A1,1,0,0,1,54.46,44.89Z" transform="translate(0 0)"/>
<path id="Fill-11" class="feathericons" d="M33,8.19l1.59.21-.5-2.28ZM34.8,9.47l-2.33-.31-.66,1.25-1.18-.16,3-5.46,1.3.18L36.32,11l-1.22-.17Z" transform="translate(0 0)"/>
<path id="Fill-13" class="feathericons" d="M50.38,36.15l-1.59-.22.5,2.28Zm-1.83-1.29,2.34.32.66-1.25,1.18.16-3,5.45-1.3-.17-1.41-6,1.21.16Z" transform="translate(0 0)"/>
<polygon id="Stroke-15" class="feathericons_stroke" points="41.2 25.62 37.91 21.29 42.24 18 45.53 22.32 41.2 25.62"/>
</g></g></g></g></svg>