<svg width="65px" height="67px" id="Layer_1" data-name="Layer 1" xmlns="http://www.w3.org/2000/svg" viewBox="0 0 64.17 66.5">
<g id="Quiz">
<g id="Desktop-HD-Copy-7">
<g id="Length_Buttons-Copy-2" data-name="Length Buttons-Copy-2">
<g id="icon_romantic_dinner" data-name="icon romantic dinner" stroke-width="1.5">
<path id="Stroke-1" class="feathericons_stroke" d="M3.52,65.75a28.56,28.56,0,0,1,57.12,0" transform="translate(0 0)"/>
<path id="Stroke-3" class="feathericons_stroke" d="M12.27,52.26a28.64,28.64,0,0,1,10.54-8.95" transform="translate(0 0)"/>
<path id="Stroke-5" class="feathericons_stroke" d="M35.44,33.83a3.36,3.36,0,1,1-3.36-3.36A3.35,3.35,0,0,1,35.44,33.83Z" transform="translate(0 0)"/>
<path id="Stroke-7" class="feathericons_stroke" d="M56.3,50.45V31.08a.73.73,0,0,0-.73-.73H50.14a.73.73,0,0,0-.73.73V42.44" transform="translate(0 0)"/>
<path id="Stroke-9" class="feathericons_stroke" d="M52.86,24.7v5.65" transform="translate(0 0)"/>
<path id="Stroke-11" class="feathericons_stroke" d="M56.24,23.85c0,2.43-1.51,4.4-3.38,4.4s-3.39-2-3.39-4.4,3.39-8.2,3.39-8.2S56.24,21.41,56.24,23.85Z" transform="translate(0 0)"/>
<path id="Stroke-13" class="feathericons_stroke" d="M16.75,17.53a8.79,8.79,0,0,1,6,8.3V38.56" transform="translate(0 0)"/>
<path id="Stroke-15" class="feathericons_stroke" d="M5.23,55.67V25.83a8.79,8.79,0,0,1,6-8.3" transform="translate(0 0)"/>
<path id="Stroke-17" class="feathericons_stroke" d="M16.75,17.53V1.61a.87.87,0,0,0-.86-.86H12.06a.86.86,0,0,0-.85.86V17.53" transform="translate(0 0)"/>
<polygon id="Stroke-19" class="feathericons_stroke" points="63.41 65.75 32.08 65.75 0.75 65.75 32.08 65.75 63.41 65.75"/>
<path id="Stroke-22" class="feathericons_stroke" d="M5.22,30.87h17.5" transform="translate(0 0)"/>
</g></g></g></g></svg>