<svg width="61px" height="75px" id="Layer_1" data-name="Layer 1" xmlns="http://www.w3.org/2000/svg" viewBox="0 0 60.75 75">
<g id="Quiz">
<g id="Desktop-HD-Copy-7">
<g id="Length_Buttons-Copy-3" data-name="Length Buttons-Copy-3">
<g id="icon_confetti" data-name="icon confetti" stroke-width="1.5">
<polygon id="Stroke-1" class="feathericons_stroke" points="37.62 51.78 0.75 74.25 12.45 32.68 37.62 51.78"/>
<path id="Stroke-3" class="feathericons_stroke" d="M19.19,30.48s4.4-6.18,0-17" transform="translate(0 0)"/>
<path id="Stroke-5" class="feathericons_stroke" d="M39.47,44.38S43.7,36,59.33,39.56" transform="translate(0 0)"/>
<path id="Stroke-7" class="feathericons_stroke" d="M31.77,36.51l12.9-12.29" transform="translate(0 0)"/>
<polygon id="Stroke-9" class="feathericons_stroke" points="30.59 30.91 26.13 29.65 27.39 25.19 31.85 26.45 30.59 30.91"/>
<polygon id="Stroke-11" class="feathericons_stroke" points="55.35 30.23 51.94 33.36 48.81 29.95 52.22 26.82 55.35 30.23"/>
<polygon id="Stroke-13" class="feathericons_stroke" points="21.8 5.11 17.44 6.67 15.88 2.31 20.24 0.75 21.8 5.11"/>
<path id="Fill-15" class="feathericons" d="M60.75,31.76a1.09,1.09,0,1,1-1.09-1.09,1.09,1.09,0,0,1,1.09,1.09" transform="translate(0 0)"/>
<path id="Fill-17" class="feathericons" d="M15.38,17.47a1.09,1.09,0,1,1-1.09-1.09,1.08,1.08,0,0,1,1.09,1.09" transform="translate(0 0)"/>
<path id="Fill-19" class="feathericons" d="M42.55,33.76a1.09,1.09,0,1,1-1.09-1.08,1.09,1.09,0,0,1,1.09,1.08" transform="translate(0 0)"/>
<path id="Stroke-21" class="feathericons_stroke_2" d="M11.37,36.51l9.77,24.4" transform="translate(0 0)"/>
<path id="Stroke-23" class="feathericons_stroke_2" d="M6.62,52.56,12,67.38" transform="translate(0 0)"/>
<path id="Stroke-25" class="feathericons_stroke_2" d="M27.33,44l4.44,11.38" transform="translate(0 0)"/>
<polygon id="Stroke-27" class="feathericons_stroke" points="34.06 13.25 29.61 11.99 30.87 7.53 35.32 8.79 34.06 13.25"/>
<path id="Fill-29" class="feathericons" d="M29,17.47a1.09,1.09,0,1,1-1.08-1.09A1.08,1.08,0,0,1,29,17.47" transform="translate(0 0)"/>
<path id="Fill-31" class="feathericons" d="M38.47,20.18a1.09,1.09,0,1,1-1.08-1.09,1.08,1.08,0,0,1,1.08,1.09" transform="translate(0 0)"/>
<polygon id="Stroke-33" class="feathericons_stroke" points="53.07 50.8 48.52 51.65 47.66 47.1 52.21 46.24 53.07 50.8"/>
<path id="Fill-35" class="feathericons" d="M43.62,48.47a1.09,1.09,0,1,1-1.09-1.09,1.09,1.09,0,0,1,1.09,1.09" transform="translate(0 0)"/>
<path id="Fill-37" class="feathericons" d="M60.55,44.05A1.09,1.09,0,1,1,59.46,43a1.09,1.09,0,0,1,1.09,1.09" transform="translate(0 0)"/>
</g></g></g></g></svg>