<svg width="54px" height="47px" id="Layer_1" data-name="Layer 1" xmlns="http://www.w3.org/2000/svg" viewBox="0 0 53.76 46.5">
<g id="Quiz">
<g id="Feather_Site_Redesign_Quiz_001-Copy-4" data-name="Feather Site Redesign Quiz 001-Copy-4">
<g id="Length_Buttons-Copy-2" data-name="Length Buttons-Copy-2">
<g id="icon_bed_twin" data-name="icon bed twin" stroke-width="1.5">
<path id="Stroke-1" class="feathericons_stroke" d="M.75,45.75V22.48A8.17,8.17,0,0,1,8.9,14.33h36A8.16,8.16,0,0,1,53,22.48V45.75" transform="translate(0 0)"/>
<path id="Stroke-3" class="feathericons_stroke" d="M.75,30.08H53" transform="translate(0 0)"/>
<path id="Stroke-5" class="feathericons_stroke" d="M.75,37.68H53" transform="translate(0 0)"/>
<path id="Stroke-7" class="feathericons_stroke" d="M38.62,14.33H15.15a2,2,0,0,1-2-2V2.75a2,2,0,0,1,2-2H38.62a2,2,0,0,1,2,2v9.58A2,2,0,0,1,38.62,14.33Z" transform="translate(0 0)"/><path id="Stroke-9" class="feathericons_stroke" d="M40.62,3.19h5.29a1.64,1.64,0,0,1,1.63,1.63v9.51" transform="translate(0 0)"/><path id="Stroke-11" class="feathericons_stroke" d="M6.22,14.33V4.82A1.64,1.64,0,0,1,7.85,3.19h5.3" transform="translate(0 0)"/></g></g></g></g></svg>