<svg width="76px" height="37px" id="Layer_1" data-name="Layer 1" xmlns="http://www.w3.org/2000/svg" viewBox="0 0 75.06 36.5">
<g id="Quiz"><g id="Feather_Site_Redesign_Quiz_005-Copy" data-name="Feather Site Redesign Quiz 005-Copy">
<g id="icon_moving_van" data-name="icon moving van">
<path id="Stroke-1" class="feathericons_stroke" stroke-width="1.5" d="M24.43,30.75H16.27A.78.78,0,0,1,15.5,30V1.52a.78.78,0,0,1,.77-.77h37.1a.78.78,0,0,1,.77.77V30.75H35.68" transform="translate(0 0)"/>
<path id="Stroke-3" class="feathericons_stroke" stroke-width="1.5" d="M58,30.75H54.14V9.21a.77.77,0,0,1,.77-.77H67.12l7.19,10.15V30a.77.77,0,0,1-.77.77H68.37" transform="translate(0 0)"/>
<path id="Stroke-5" class="feathericons_stroke" stroke-width="1.5" d="M35,30.75a5,5,0,1,1-5-5A5,5,0,0,1,35,30.75Z" transform="translate(0 0)"/>
<path id="Stroke-7" class="feathericons_stroke" stroke-width="1.5" d="M68.07,30.75a5,5,0,1,1-5-5A5,5,0,0,1,68.07,30.75Z" transform="translate(0 0)"/>
<path id="Stroke-9" class="feathericons_stroke" stroke-width="1.5" d="M74.31,18.59h-14" transform="translate(0 0)"/>
<path id="Stroke-11" class="feathericons_stroke" stroke-width="1.5" d="M60.29,8.44V18.59" transform="translate(0 0)"/>
<path id="Stroke-13" class="feathericons_stroke" stroke-width="1.5" d="M.75,6.39h17.7" transform="translate(0 0)"/>
<path id="Stroke-15" class="feathericons_stroke" stroke-width="1.5" d="M4.45,15.6h17.7" transform="translate(0 0)"/>
<path id="Stroke-17" class="feathericons_stroke" stroke-width="1.5" d="M9.72,10.82H27.89" transform="translate(0 0)"/>
</g></g></g></svg>