<svg xmlns="http://www.w3.org/2000/svg" width="42" height="42" viewBox="0 0 42 42" fill="none">
<circle cx="21" cy="21" r="20.5" stroke="white"/>
<path fill-rule="evenodd" clip-rule="evenodd" d="M21 12C18.5589 12 18.248 12.0104 17.2899 12.0572C16.3318 12.104 15.6795 12.2549 15.1087 12.4837C14.5176 12.7178 14.013 13.0299 13.5136 13.5448C13.0142 14.0545 12.7084 14.5694 12.474 15.1728C12.2497 15.7553 12.0968 16.4263 12.0561 17.3989L12.0535 17.4604C12.0146 18.391 12 18.7419 12 21.1855C12 23.6769 12.0102 23.989 12.0561 24.972C12.1019 25.9499 12.2497 26.6156 12.474 27.1982C12.7033 27.8015 13.0091 28.3165 13.5136 28.8262C14.013 29.3359 14.5176 29.6532 15.1087 29.8872C15.6795 30.1161 16.3369 30.2669 17.2899 30.3138C18.248 30.3606 18.5538 30.371 21 30.371C23.4411 30.371 23.7469 30.3606 24.7101 30.3138C25.6682 30.2669 26.3205 30.1161 26.8964 29.8872C27.4875 29.6532 27.987 29.3359 28.4864 28.8262C28.9858 28.3165 29.2916 27.8015 29.526 27.1982C29.7452 26.6156 29.8981 25.9499 29.9439 24.972L29.9465 24.9106V24.9106C29.9854 23.9799 30 23.6291 30 21.1855C30 18.6941 29.9898 18.382 29.9439 17.3989C29.8981 16.4211 29.7452 15.7553 29.526 15.1728C29.2967 14.5694 28.9858 14.0545 28.4864 13.5448C27.987 13.0351 27.4875 12.723 26.8913 12.4837C26.3154 12.2549 25.6631 12.104 24.705 12.0572C23.7469 12.0104 23.4411 12 21 12ZM20.1985 13.6503H21.0037C23.404 13.6503 23.6894 13.6607 24.6373 13.7023C25.5139 13.7439 25.9878 13.8948 26.3089 14.0196C26.7268 14.186 27.0275 14.3837 27.3435 14.7062C27.6594 15.0286 27.8531 15.3355 28.0162 15.762C28.1385 16.0845 28.2863 16.5734 28.327 17.4681C28.3678 18.4355 28.378 18.7268 28.378 21.1766C28.378 23.6264 28.3678 23.9177 28.327 24.8851C28.2863 25.7797 28.1385 26.2634 28.0162 26.5911C27.8531 27.0176 27.6594 27.3245 27.3435 27.647C27.0275 27.9695 26.7319 28.1671 26.3089 28.3336C25.9929 28.4584 25.5139 28.6092 24.6373 28.6508C23.6894 28.6924 23.404 28.7028 21.0037 28.7028C18.6034 28.7028 18.318 28.6924 17.3701 28.6508C16.4935 28.6092 16.0196 28.4584 15.6985 28.3336C15.2806 28.1671 14.9799 27.9695 14.6639 27.647C14.348 27.3245 14.1543 27.0176 13.9912 26.5911C13.8689 26.2686 13.7211 25.7797 13.6804 24.8851C13.6396 23.9177 13.6294 23.6264 13.6294 21.1766C13.6294 18.7268 13.6396 18.4355 13.6804 17.4681C13.7211 16.5734 13.8689 16.0897 13.9912 15.762C14.1543 15.3355 14.348 15.0286 14.6639 14.7062C14.9799 14.3837 15.2806 14.186 15.6985 14.0196C16.0145 13.8948 16.4935 13.7439 17.3701 13.7023C18.2008 13.6607 18.5218 13.6503 20.1985 13.6503ZM24.7242 16.2857C24.7242 15.6771 25.2083 15.183 25.8046 15.183C26.4009 15.183 26.885 15.6771 26.885 16.2857C26.885 16.8942 26.4009 17.3884 25.8046 17.3884C25.2083 17.3884 24.7242 16.8942 24.7242 16.2857ZM20.9978 16.4715C18.4445 16.4715 16.3805 18.5833 16.3805 21.1839C16.3805 23.7898 18.4496 25.8963 20.9978 25.8963C23.551 25.8963 25.615 23.7846 25.615 21.1839C25.615 18.5781 23.551 16.4715 20.9978 16.4715ZM23.9967 21.1791C23.9967 19.4886 22.6564 18.1207 21.0001 18.1207C19.3438 18.1207 18.0035 19.4886 18.0035 21.1791C18.0035 22.8695 19.3438 24.2374 21.0001 24.2374C22.6564 24.2374 23.9967 22.8695 23.9967 21.1791Z" fill="white"/>
</svg>