<svg xmlns="http://www.w3.org/2000/svg" width="42" height="42" viewBox="0 0 42 42" fill="none">
<circle cx="21" cy="21" r="20.5" stroke="white"/>
<path fill-rule="evenodd" clip-rule="evenodd" d="M15.6784 16.3208C16.7259 16.3208 17.3782 15.5826 17.3782 14.6599C17.3587 13.7173 16.7259 13 15.6989 13C14.6719 13 14 13.7173 14 14.6599C14 15.5826 14.6523 16.3208 15.6606 16.3208H15.6784ZM28.0083 27.244V21.7343C28.0083 18.7827 26.5266 17.4086 24.5509 17.4086C22.9561 17.4086 22.2424 18.3417 21.8437 18.9956V17.6347H18.8401C18.8802 18.5366 18.8401 27.244 18.8401 27.244H21.8437V21.8772C21.8437 21.5905 21.8633 21.3038 21.9425 21.0984C22.1596 20.5249 22.6535 19.9306 23.483 19.9306C24.5705 19.9306 25.0048 20.8117 25.0048 22.1034V27.245L28.0083 27.244ZM17.1774 17.6327V27.242H14.1738V17.6327H17.1774Z" fill="white"/>
</svg>