<svg xmlns="http://www.w3.org/2000/svg" width="42" height="42" viewBox="0 0 42 42" fill="none">
<circle cx="21" cy="21" r="20.5" stroke="white"/>
<path fill-rule="evenodd" clip-rule="evenodd" d="M20.0539 24.9052C19.5568 27.3832 18.9497 29.7591 17.1513 31C16.5962 27.2546 17.9664 24.4416 18.6026 21.4553C17.5177 19.7187 18.7331 16.2241 21.0214 17.0854C23.8369 18.1444 18.5832 23.5412 22.11 24.2152C25.7925 24.9189 27.2958 18.14 25.0126 15.9355C21.7132 12.7523 15.4085 15.8629 16.1837 20.4203C16.3723 21.5346 17.583 21.8726 16.6675 23.4102C14.5558 22.9651 13.9257 21.3816 14.0068 19.2704C14.1373 15.8146 17.2722 13.3952 20.4167 13.0606C24.3932 12.6373 28.1253 14.4485 28.6408 18.0054C29.2211 22.0199 26.8458 26.3678 22.5937 26.0552C21.441 25.9701 20.9573 25.4272 20.0539 24.9052" fill="white"/>
</svg>