<svg xmlns="http://www.w3.org/2000/svg" width="42" height="42" viewBox="0 0 42 42" fill="none">
<circle cx="21" cy="21" r="20.5" stroke="white"/>
<path d="M28.8348 18.05C28.8348 17.8944 28.8318 17.7403 28.8244 17.5876C29.5314 17.0915 30.1446 16.4708 30.6298 15.7604C29.9809 16.0351 29.2843 16.2186 28.552 16.2956C29.2992 15.8626 29.8722 15.1704 30.1431 14.3395C29.4435 14.7389 28.6696 15.0247 27.8465 15.1733C27.1872 14.467 26.2466 14.0173 25.2061 14.0004C23.2087 13.9696 21.5894 15.5586 21.5894 17.5497C21.5894 17.8327 21.6207 18.1074 21.6832 18.3722C18.6752 18.19 16.0096 16.716 14.2265 14.4937C13.9154 15.0261 13.7368 15.6483 13.7368 16.3153C13.7368 17.5764 14.3753 18.6973 15.3457 19.3587C14.7519 19.3335 14.1952 19.164 13.707 18.8865C13.707 18.9019 13.707 18.9173 13.707 18.9327C13.707 20.6955 14.9543 22.1723 16.6093 22.517C16.3057 22.5983 15.9857 22.6403 15.6568 22.639C15.4231 22.6375 15.1968 22.6137 14.9766 22.5688C15.4365 24.0135 16.7731 25.0686 18.3551 25.1036C17.1168 26.0704 15.557 26.6477 13.8633 26.6435C13.5715 26.6435 13.2828 26.6254 13 26.5917C14.6015 27.6258 16.5021 28.2283 18.5456 28.2283C25.1972 28.2298 28.8348 22.779 28.8348 18.05Z" fill="white"/>
</svg>