<?xml version="1.0" encoding="UTF-8"?>
<svg width="41px" height="42px" viewBox="0 0 41 42" version="1.1" xmlns="http://www.w3.org/2000/svg" xmlns:xlink="http://www.w3.org/1999/xlink">
  <g id="Symbols" stroke="none" stroke-width="1" fill="none" fill-rule="evenodd">
    <g id="New_Footer" transform="translate(-135.000000, -258.000000)" fill-rule="nonzero">
      <g id="Group-9" transform="translate(77.000000, 258.000000)">
        <g id="Group-3">
          <g class="icon-social-media" id="icon_footer_social_twitter" transform="translate(58.000000, 0.000000)">
            <path d="M20.5,41.5 C9.17816263,41.5 0,32.3218374 0,21 C0,9.67816263 9.17816263,0.5 20.5,0.5 C31.8218374,0.5 41,9.67816263 41,21 C41,32.3218374 31.8218374,41.5 20.5,41.5 Z M20.5,40.5 C31.2695526,40.5 40,31.7695526 40,21 C40,10.2304474 31.2695526,1.5 20.5,1.5 C9.73044738,1.5 1,10.2304474 1,21 C1,31.7695526 9.73044738,40.5 20.5,40.5 Z" id="Oval-Copy"></path>
            <path d="M28.6260912,18.7343581 C28.6260912,18.5802046 28.6232956,18.4274488 28.6163567,18.2760908 C29.276002,17.7844769 29.8481371,17.1693106 30.3008632,16.4652364 C29.6953814,16.7374511 29.0454706,16.9193602 28.3622131,16.9956882 C29.0593484,16.5665743 29.5939935,15.8805712 29.8467394,15.057088 C29.194033,15.4528552 28.4719376,15.7361522 27.7039656,15.8833668 C27.0887993,15.183436 26.2111526,14.7376987 25.2404048,14.7210253 C23.3767847,14.6904742 21.8659006,16.2652561 21.8659006,18.2385509 C21.8659006,18.5190523 21.895054,18.7912671 21.9533608,19.0536975 C19.1468484,18.8731861 16.6597252,17.4122721 14.9960355,15.2098437 C14.7057995,15.7375499 14.539166,16.3541141 14.539166,17.0151571 C14.539166,18.2650086 15.1349134,19.3759322 16.0403157,20.0313841 C15.4862516,20.0064241 14.9668821,19.8383927 14.5114104,19.5633825 C14.5114104,19.578658 14.5114104,19.5939336 14.5114104,19.6092092 C14.5114104,21.3562157 15.6751496,22.8198754 17.2193304,23.1614792 C16.9360334,23.2420004 16.6374608,23.2836837 16.3305516,23.2823359 C16.1125502,23.2809381 15.9014377,23.2573259 15.6959164,23.212847 C16.1250302,24.6446076 17.3720862,25.6902856 18.8482259,25.7249801 C17.6928233,26.683148 16.2375004,27.2552832 14.6571773,27.2511398 C14.3849626,27.2511398 14.1155933,27.2331186 13.8517152,27.199772 C15.3459759,28.2246332 17.1192904,28.8217285 19.0259417,28.8217285 C25.2320682,28.8231762 28.6260912,23.4211639 28.6260912,18.7343581 Z"></path>
          </g>
        </g>
      </g>
    </g>
  </g>
</svg>