<?xml version="1.0" encoding="UTF-8"?>
<svg width="41px" height="42px" viewBox="0 0 41 42" version="1.1" xmlns="http://www.w3.org/2000/svg" xmlns:xlink="http://www.w3.org/1999/xlink">
  <g id="Symbols" stroke="none" stroke-width="1" fill="none" fill-rule="evenodd">
    <g id="New_Footer" transform="translate(-250.000000, -258.000000)" fill-rule="nonzero">
      <g id="Group-9" transform="translate(77.000000, 258.000000)">
        <g class="icon-social-media" id="icon_footer_social_linkedin" transform="translate(172.250000, 0.000000)">
          <path d="M21.25,41.5 C9.92816263,41.5 0.75,32.3218374 0.75,21 C0.75,9.67816263 9.92816263,0.5 21.25,0.5 C32.5718374,0.5 41.75,9.67816263 41.75,21 C41.75,32.3218374 32.5718374,41.5 21.25,41.5 Z M21.25,40.5 C32.0195526,40.5 40.75,31.7695526 40.75,21 C40.75,10.2304474 32.0195526,1.5 21.25,1.5 C10.4804474,1.5 1.75,10.2304474 1.75,21 C1.75,31.7695526 10.4804474,40.5 21.25,40.5 Z" id="Oval-Copy-2"></path>
          <path d="M29.0588235,27.6558824 L29.0588235,21.9480392 C29.0588235,18.8901961 27.4257448,17.4666667 25.2483064,17.4666667 C23.4906625,17.4666667 22.7040384,18.4333333 22.2646274,19.1107843 L22.2646274,17.7009804 L18.9543326,17.7009804 C18.9984699,18.6352941 18.9543326,27.6558824 18.9543326,27.6558824 L22.2646274,27.6558824 L22.2646274,22.0960784 C22.2646274,21.7990196 22.2862056,21.5019608 22.3734993,21.2892157 C22.6128214,20.695098 23.157181,20.0794118 24.0713127,20.0794118 C25.2698847,20.0794118 25.7485288,20.9921569 25.7485288,22.3303922 L25.7485288,27.6568627 L29.0588235,27.6558824 Z M15.4674888,16.3421569 C16.6219235,16.3421569 17.3408705,15.577451 17.3408705,14.6215686 C17.3192922,13.645098 16.6219235,12.9019608 15.4900479,12.9019608 C14.3581723,12.9019608 13.6176471,13.645098 13.6176471,14.6215686 C13.6176471,15.577451 14.336594,16.3421569 15.4478723,16.3421569 L15.4674888,16.3421569 Z M17.1221458,27.6558824 L17.1221458,17.7009804 L13.811851,17.7009804 L13.811851,27.6558824 L17.1221458,27.6558824 Z"></path>
        </g>
      </g>
    </g>
  </g>
</svg>