<?xml version="1.0" encoding="UTF-8"?>
<svg width="42px" height="42px" viewBox="0 0 42 42" version="1.1" xmlns="http://www.w3.org/2000/svg" xmlns:xlink="http://www.w3.org/1999/xlink">
  <g id="Symbols" stroke="none" stroke-width="1" fill="none" fill-rule="evenodd">
    <g id="New_Footer" transform="translate(-192.000000, -258.000000)" fill-rule="nonzero">
      <g id="Group-9" transform="translate(77.000000, 258.000000)">
        <g class="icon-social-media" id="icon_footer_social_instagram" transform="translate(115.500000, 0.000000)">
          <path d="M20.5,41.5 C9.17816263,41.5 0,32.3218374 0,21 C0,9.67816263 9.17816263,0.5 20.5,0.5 C31.8218374,0.5 41,9.67816263 41,21 C41,32.3218374 31.8218374,41.5 20.5,41.5 Z M20.5,40.5 C31.2695526,40.5 40,31.7695526 40,21 C40,10.2304474 31.2695526,1.5 20.5,1.5 C9.73044738,1.5 1,10.2304474 1,21 C1,31.7695526 9.73044738,40.5 20.5,40.5 Z" id="Oval-Copy-3"></path>
          <path d="M20.972549,11.7303922 C18.4950087,11.7303922 18.1794973,11.7407368 17.2071015,11.7872877 C16.2347057,11.8338385 15.5726489,11.9838357 14.9933493,12.2114177 C14.3933604,12.4441721 13.8813009,12.7545111 13.3744138,13.2665706 C12.8675266,13.7734578 12.5571875,14.2855173 12.3192609,14.8855062 C12.0916789,15.4648058 11.9365093,16.1320348 11.8951308,17.0992583 C11.8537522,18.0716541 11.8382353,18.3819932 11.8382353,20.8647059 C11.8382353,23.3422462 11.8485799,23.6525853 11.8951308,24.6301534 C11.9416817,25.6025492 12.0916789,26.264606 12.3192609,26.8439056 C12.5520152,27.4438945 12.8623543,27.955954 13.3744138,28.4628411 C13.8813009,28.9697283 14.3933604,29.2852397 14.9933493,29.517994 C15.5726489,29.745576 16.239878,29.8955732 17.2071015,29.9421241 C18.1794973,29.988675 18.4898363,29.9990196 20.972549,29.9990196 C23.4500894,29.9990196 23.7604285,29.988675 24.7379966,29.9421241 C25.7103924,29.8955732 26.3724491,29.745576 26.956921,29.517994 C27.5569099,29.2852397 28.0637971,28.9697283 28.5706843,28.4628411 C29.0775714,27.955954 29.3879105,27.4438945 29.6258372,26.8439056 C29.8482468,26.264606 30.0034164,25.6025492 30.0499672,24.6301534 C30.0913458,23.6577576 30.1068627,23.3474186 30.1068627,20.8647059 C30.1068627,18.3871655 30.0965181,18.0768264 30.0499672,17.0992583 C30.0034164,16.1268625 29.8482468,15.4648058 29.6258372,14.8855062 C29.3930829,14.2855173 29.0775714,13.7734578 28.5706843,13.2665706 C28.0637971,12.7596835 27.5569099,12.4493444 26.9517487,12.2114177 C26.3672768,11.9838357 25.7052201,11.8338385 24.7328243,11.7872877 C23.7604285,11.7407368 23.4500894,11.7303922 20.972549,11.7303922 Z M20.1553228,13.3751893 C20.3984217,13.3751893 20.6673823,13.3751893 20.972549,13.3751893 C23.4087108,13.3751893 23.6983606,13.3855339 24.6604118,13.4269125 C25.5500505,13.468291 26.0310761,13.6182883 26.3569321,13.7424239 C26.7810622,13.9079381 27.086229,14.1044862 27.4069127,14.4251699 C27.7275964,14.7458536 27.9241445,15.0510204 28.0896587,15.4751504 C28.2137943,15.7958342 28.3637916,16.2820321 28.4051701,17.1716708 C28.4465486,18.1337219 28.4568933,18.4233717 28.4568933,20.8595336 C28.4568933,23.2956954 28.4465486,23.5853452 28.4051701,24.5473964 C28.3637916,25.4370351 28.2137943,25.9180606 28.0896587,26.2439167 C27.9241445,26.6680468 27.7275964,26.9732135 27.4069127,27.2938973 C27.086229,27.614581 26.7862345,27.8111291 26.3569321,27.9766432 C26.0362484,28.1007789 25.5500505,28.2507761 24.6604118,28.2921546 C23.6983606,28.3335332 23.4087108,28.3438778 20.972549,28.3438778 C18.5363872,28.3438778 18.2467374,28.3335332 17.2846862,28.2921546 C16.3950475,28.2507761 15.9140219,28.1007789 15.5881659,27.9766432 C15.1640358,27.8111291 14.8588691,27.614581 14.5381853,27.2938973 C14.2175016,26.9732135 14.0209535,26.6680468 13.8554393,26.2439167 C13.7313037,25.923233 13.5813065,25.4370351 13.5399279,24.5473964 C13.4985494,23.5853452 13.4882048,23.2956954 13.4882048,20.8595336 C13.4882048,18.4233717 13.4985494,18.1337219 13.5399279,17.1716708 C13.5813065,16.2820321 13.7313037,15.8010065 13.8554393,15.4751504 C14.0209535,15.0510204 14.2175016,14.7458536 14.5381853,14.4251699 C14.8588691,14.1044862 15.1640358,13.9079381 15.5881659,13.7424239 C15.9088496,13.6182883 16.3950475,13.468291 17.2846862,13.4269125 C18.1277741,13.3855339 18.4536301,13.3751893 20.1553228,13.3751893 Z M25.8448726,14.8906785 C25.2397114,14.8906785 24.7483412,15.3820487 24.7483412,15.9872099 C24.7483412,16.5923712 25.2397114,17.0837414 25.8448726,17.0837414 C26.4500339,17.0837414 26.9414041,16.5923712 26.9414041,15.9872099 C26.9414041,15.3820487 26.4500339,14.8906785 25.8448726,14.8906785 Z M20.972549,16.1734134 C18.3812177,16.1734134 16.2864288,18.2733745 16.2864288,20.8595336 C16.2864288,23.4508649 18.38639,25.5456537 20.972549,25.5456537 C23.5638804,25.5456537 25.6586692,23.4456926 25.6586692,20.8595336 C25.6586692,18.2682022 23.5638804,16.1734134 20.972549,16.1734134 Z M20.972549,17.8182105 C22.6535524,17.8182105 24.013872,19.1785302 24.013872,20.8595336 C24.013872,22.5405369 22.6535524,23.9008566 20.972549,23.9008566 C19.2915456,23.9008566 17.931226,22.5405369 17.931226,20.8595336 C17.931226,19.1785302 19.2915456,17.8182105 20.972549,17.8182105 Z"></path>
        </g>
      </g>
    </g>
  </g>
</svg>