<?xml version="1.0" encoding="UTF-8"?>
<svg width="42px" height="42px" viewBox="0 0 42 42" version="1.1" xmlns="http://www.w3.org/2000/svg" xmlns:xlink="http://www.w3.org/1999/xlink">
  <g id="Symbols" stroke="none" stroke-width="1" fill="none" fill-rule="evenodd">
    <g id="New_Footer" transform="translate(-307.000000, -258.000000)" fill-rule="nonzero">
      <g id="Group-9" transform="translate(77.000000, 258.000000)">
        <g class="icon-social-media" id="icon_footer_social_facebook" transform="translate(230.000000, 0.000000)">
          <path d="M21,41.5 C9.67816263,41.5 0.5,32.3218374 0.5,21 C0.5,9.67816263 9.67816263,0.5 21,0.5 C32.3218374,0.5 41.5,9.67816263 41.5,21 C41.5,32.3218374 32.3218374,41.5 21,41.5 Z M21,40.5 C31.7695526,40.5 40.5,31.7695526 40.5,21 C40.5,10.2304474 31.7695526,1.5 21,1.5 C10.2304474,1.5 1.5,10.2304474 1.5,21 C1.5,31.7695526 10.2304474,40.5 21,40.5 Z" id="Oval-Copy-4"></path>
          <path d="M21.7038594,31.5717157 L21.7038594,21.0020771 L25.1915643,21.0020771 L25.7426167,17.499411 L21.7038594,17.499411 L21.7038594,15.7430808 C21.7038594,14.8291285 22.0035032,13.9567684 23.3153647,13.9567684 L25.9373522,13.9567684 L25.9373522,10.4607451 L22.2149354,10.4607451 C19.0851633,10.4607451 18.2311158,12.5216861 18.2311158,15.3785053 L18.2311158,17.4977951 L16.0835791,17.4977951 L16.0835791,21.0020771 L18.2311158,21.0020771 L18.2311158,31.5717157 L21.7038594,31.5717157 Z"></path>
        </g>
      </g>
    </g>
  </g>
</svg>