<?xml version="1.0" encoding="UTF-8"?>
<svg width="42px" height="42px" viewBox="0 0 42 42" version="1.1" xmlns="http://www.w3.org/2000/svg" xmlns:xlink="http://www.w3.org/1999/xlink">
  <g id="Symbols" stroke="none" stroke-width="1" fill="none" fill-rule="evenodd">
    <g id="New_Footer" transform="translate(-77.000000, -258.000000)">
      <g id="Group-9" transform="translate(77.000000, 258.000000)">
        <g id="Group-3">
          <g class="icon-social-media" id="icon_footer_social_pinterest">
            <path d="M21,41.5 C9.67816263,41.5 0.5,32.3218374 0.5,21 C0.5,9.67816263 9.67816263,0.5 21,0.5 C32.3218374,0.5 41.5,9.67816263 41.5,21 C41.5,32.3218374 32.3218374,41.5 21,41.5 Z M21,40.5 C31.7695526,40.5 40.5,31.7695526 40.5,21 C40.5,10.2304474 31.7695526,1.5 21,1.5 C10.2304474,1.5 1.5,10.2304474 1.5,21 C1.5,31.7695526 10.2304474,40.5 21,40.5 Z" id="Oval" fill-rule="nonzero"></path>
            <path d="M19.5352353,24.77663 C18.9793523,27.6911612 18.3003905,30.4854539 16.2892031,31.9449511 C15.6683994,27.5398149 17.2007971,24.2314319 17.9122192,20.7190898 C16.6990146,18.6766593 18.0581554,14.5665063 20.617246,15.5795388 C23.7658972,16.8250684 17.890579,23.1724139 21.8346433,23.965122 C25.9529114,24.7927249 27.6340856,16.8197936 25.0806755,14.2270254 C21.3908837,10.483133 14.3402312,14.1416818 15.2071923,19.5018277 C15.4180492,20.8124132 16.7720504,21.2099169 15.7481977,23.0183626 C13.386574,22.4948046 12.6819145,20.6323937 12.7726682,18.1493143 C12.9186044,14.0848762 16.4244544,11.2393233 19.9409893,10.8457419 C24.3880534,10.3478817 28.5617745,12.4780903 29.1382158,16.6615495 C29.7871517,21.3831739 27.1308154,26.4968918 22.3756487,26.1291434 C21.0865682,26.0290574 20.5455628,25.3905359 19.5352353,24.77663" id="Fill-1"></path>
          </g>
        </g>
      </g>
    </g>
  </g>
</svg>