<?xml version="1.0" encoding="UTF-8"?>
<svg width="14px" height="14px" viewBox="0 0 14 14" version="1.1" xmlns="http://www.w3.org/2000/svg" xmlns:xlink="http://www.w3.org/1999/xlink">
  <g id="Symbols" stroke="none" stroke-width="1" fill="none" fill-rule="evenodd">
    <g id="icon/tooltip">
      <g id="Group">
        <g>
          <circle id="Oval" fill="#6DBEBE" cx="7" cy="7" r="7"></circle>
          <path d="M7.424,8.272 L6.56,8.272 C6.544,8.168 6.528,8.064 6.528,7.944 C6.528,7.52 6.704,7.128 7.16,6.784 L7.544,6.496 C7.784,6.32 7.888,6.104 7.888,5.864 C7.888,5.496 7.624,5.144 7.088,5.144 C6.52,5.144 6.272,5.6 6.272,6.048 C6.272,6.144 6.28,6.232 6.304,6.304 L5.296,6.264 C5.264,6.152 5.256,6.024 5.256,5.904 C5.256,5.04 5.904,4.208 7.088,4.208 C8.328,4.208 8.976,4.992 8.976,5.8 C8.976,6.432 8.656,6.88 8.184,7.216 L7.856,7.448 C7.576,7.648 7.424,7.896 7.424,8.224 L7.424,8.272 Z M6.376,9.432 C6.376,9.08 6.656,8.792 7.008,8.792 C7.36,8.792 7.648,9.08 7.648,9.432 C7.648,9.784 7.36,10.064 7.008,10.064 C6.656,10.064 6.376,9.784 6.376,9.432 Z" id="?" fill="#FFFFFF"></path>
        </g>
      </g>
    </g>
  </g>
</svg>